<svg width="424" height="143" viewBox="0 0 424 143" fill="none" xmlns="http://www.w3.org/2000/svg">
<path fill-rule="evenodd" clip-rule="evenodd" d="M0.621074 0.622439C0.900955 32.9439 22.9709 64.0276 62.3152 87.0484C101.903 110.212 155.636 123.244 211.696 123.244C267.757 123.244 321.49 110.212 361.078 87.0485C400.422 64.0276 422.492 32.9439 422.772 0.622499L0.621074 0.622439ZM0.0029709 0.622439C0.282814 33.2491 22.5547 64.5039 62.0046 87.5866C101.705 110.816 155.551 123.866 211.696 123.866C267.842 123.866 321.687 110.816 361.388 87.5867C400.838 64.504 423.11 33.2491 423.39 0.622499C423.392 0.415069 423.393 0.207586 423.393 5.12953e-05L0.000315929 -1.34572e-06C0.000315911 0.207534 0.00119783 0.415008 0.0029709 0.622439Z" fill="url(#paint0_linear_201_18)"/>
<g filter="url(#filter0_b_201_18)">
<ellipse cx="210.5" cy="118.328" rx="24.5" ry="24.6725" fill="#FFB547"/>
<path d="M234.705 118.328C234.705 131.793 223.866 142.705 210.5 142.705C197.134 142.705 186.296 131.793 186.296 118.328C186.296 104.862 197.134 93.9502 210.5 93.9502C223.866 93.9502 234.705 104.862 234.705 118.328Z" stroke="#FE5E35" stroke-width="0.590361"/>
</g>
<g filter="url(#filter1_b_201_18)">
<path d="M204.159 120.39C205.694 120.39 206.933 119.706 206.933 117.895V117.685C206.933 116.791 206.461 116.305 205.814 116.062C206.363 115.808 206.659 115.057 206.659 114.251C206.659 112.76 205.606 112.252 204.213 112.252C202.328 112.252 201.714 113.367 201.714 114.229C201.714 114.759 201.812 114.924 202.602 114.924C203.238 114.924 203.402 114.67 203.402 114.295C203.402 113.864 203.676 113.732 204.213 113.732C204.663 113.732 205.025 113.887 205.025 114.527C205.025 115.421 204.586 115.477 204.17 115.477C203.797 115.477 203.676 115.808 203.676 116.139C203.676 116.47 203.797 116.802 204.17 116.802C204.773 116.802 205.223 116.945 205.223 117.685V117.895C205.223 118.613 204.959 118.889 204.214 118.889C203.72 118.889 203.238 118.767 203.238 118.248C203.238 117.828 203.062 117.674 202.361 117.674C201.757 117.674 201.549 117.806 201.549 118.303C201.549 119.231 202.273 120.39 204.159 120.39Z" fill="white"/>
<path d="M210.946 113.754C211.462 113.754 211.9 113.975 211.9 114.394C211.9 114.902 212.317 115.024 212.789 115.024C213.337 115.024 213.589 114.858 213.589 114.328C213.589 113.412 212.854 112.252 211.001 112.252C209.422 112.252 208.205 112.959 208.205 114.858V117.784C208.205 119.684 209.389 120.39 210.903 120.39C212.416 120.39 213.589 119.684 213.589 117.784V117.685C213.589 115.918 212.536 115.366 211.286 115.366C210.76 115.366 210.267 115.465 209.916 115.852V114.858C209.916 114.096 210.3 113.754 210.946 113.754V113.754ZM210.892 116.691C211.517 116.691 211.879 117 211.879 117.806V117.906C211.879 118.668 211.517 118.999 210.903 118.999C210.289 118.999 209.916 118.668 209.916 117.906V117.707C209.916 116.978 210.3 116.691 210.892 116.691V116.691Z" fill="white"/>
<path d="M217.613 116.89C217.953 116.89 218.162 116.658 218.162 116.327C218.162 115.984 217.953 115.775 217.613 115.775C217.262 115.775 217.054 115.984 217.054 116.327C217.054 116.658 217.262 116.89 217.613 116.89Z" fill="white"/>
<path d="M217.602 120.39C219.115 120.39 220.3 119.684 220.3 117.784V114.858C220.3 112.959 219.115 112.252 217.602 112.252C216.089 112.252 214.916 112.959 214.916 114.858V117.784C214.916 119.684 216.089 120.39 217.602 120.39V120.39ZM216.626 114.858C216.626 114.096 216.988 113.754 217.602 113.754C218.216 113.754 218.589 114.096 218.589 114.858V117.784C218.589 118.546 218.216 118.889 217.602 118.889C216.988 118.889 216.626 118.546 216.626 117.784V114.858Z" fill="white"/>
<path d="M222.377 112.244C223.809 112.244 224.974 111.071 224.974 109.629C224.974 108.187 223.809 107.014 222.377 107.014C220.945 107.014 219.78 108.187 219.78 109.629C219.78 111.071 220.945 112.244 222.377 112.244ZM222.377 108.757C222.855 108.757 223.243 109.149 223.243 109.629C223.243 110.11 222.855 110.501 222.377 110.501C221.9 110.501 221.512 110.11 221.512 109.629C221.512 109.149 221.9 108.757 222.377 108.757Z" fill="white"/>
<path d="M223.099 115.529C222.705 115.256 222.166 115.356 221.895 115.753C221.624 116.149 221.724 116.692 222.117 116.965C222.964 117.551 223.973 118.492 223.973 119.641C223.973 120.683 223.111 121.763 221.545 122.682C219.832 123.687 217.383 124.433 214.647 124.784C214.173 124.845 213.838 125.282 213.898 125.759C213.954 126.199 214.326 126.521 214.756 126.521C214.792 126.521 214.829 126.519 214.866 126.514C217.87 126.129 220.48 125.324 222.416 124.188C224.567 122.926 225.704 121.354 225.704 119.641C225.704 118.132 224.803 116.709 223.099 115.529V115.529Z" fill="white"/>
<path d="M209.234 122.947C208.896 122.607 208.348 122.607 208.01 122.947C207.672 123.287 207.672 123.839 208.01 124.18L208.764 124.939C205.996 124.741 203.453 124.163 201.448 123.262C199.186 122.246 197.888 120.926 197.888 119.641C197.888 118.615 198.728 117.548 200.253 116.638C200.664 116.392 200.8 115.858 200.556 115.444C200.312 115.029 199.781 114.893 199.37 115.138C196.714 116.724 196.156 118.462 196.156 119.641C196.156 121.674 197.785 123.526 200.743 124.854C202.991 125.864 205.835 126.501 208.904 126.696L208.01 127.596C207.672 127.937 207.672 128.489 208.01 128.829C208.179 128.999 208.4 129.085 208.622 129.085C208.843 129.085 209.065 128.999 209.234 128.829L211.542 126.504C211.881 126.164 211.881 125.612 211.542 125.272L209.234 122.947Z" fill="white"/>
</g>
<defs>
<filter id="filter0_b_201_18" x="137" y="44.655" width="147" height="147.345" filterUnits="userSpaceOnUse" color-interpolation-filters="sRGB">
<feFlood flood-opacity="0" result="BackgroundImageFix"/>
<feGaussianBlur in="BackgroundImageFix" stdDeviation="24.5"/>
<feComposite in2="SourceAlpha" operator="in" result="effect1_backgroundBlur_201_18"/>
<feBlend mode="normal" in="SourceGraphic" in2="effect1_backgroundBlur_201_18" result="shape"/>
</filter>
<filter id="filter1_b_201_18" x="186.56" y="102.018" width="48.7401" height="32.0749" filterUnits="userSpaceOnUse" color-interpolation-filters="sRGB">
<feFlood flood-opacity="0" result="BackgroundImageFix"/>
<feGaussianBlur in="BackgroundImageFix" stdDeviation="0.579769"/>
<feComposite in2="SourceAlpha" operator="in" result="effect1_backgroundBlur_201_18"/>
<feBlend mode="normal" in="SourceGraphic" in2="effect1_backgroundBlur_201_18" result="shape"/>
</filter>
<linearGradient id="paint0_linear_201_18" x1="211.696" y1="123.866" x2="211.383" y2="35.1681" gradientUnits="userSpaceOnUse">
<stop stop-color="#FE5E35"/>
<stop offset="1" stop-color="#FE5E35" stop-opacity="0"/>
</linearGradient>
</defs>
</svg>
