<svg width="59" height="53" viewBox="0 0 59 53" fill="none" xmlns="http://www.w3.org/2000/svg">
<path d="M8.88408 15.6556C7.27036 12.0269 9.27955 5.49413 9.27955 5.49413L10.7512 0.00179833L58.6495 12.8361L48.2109 51.7933C48.2109 51.7933 39.8413 52.3046 36.9708 48.7816C34.5922 45.8624 35.27 39.2905 35.27 39.2905C35.27 39.2905 24.1814 39.8634 20.1981 35.252C16.8161 31.3368 17.3685 22.3098 17.3685 22.3098C17.3685 22.3098 10.5952 19.5032 8.88408 15.6556Z" fill="#F6FDFD"/>
<path d="M9.24739 5.62208C9.24739 5.62208 7.41315 11.8599 9.0837 15.4387C10.7981 19.1115 16.9901 22.0794 16.9901 22.0794" stroke="black" stroke-width="0.684293" stroke-linecap="round"/>
<path d="M17.2486 18.0972C17.2486 18.0972 15.9675 30.4129 20.7066 35.4322C25.9132 40.9465 39.7725 39.1229 39.7725 39.1229" stroke="black" stroke-width="0.684293" stroke-linecap="round"/>
<path d="M35.2092 39.521C35.2092 39.521 34.5607 45.1744 36.3965 47.9421C39.0606 51.9584 48.1518 51.6996 48.1518 51.6996" stroke="black" stroke-width="0.684293" stroke-linecap="round"/>
</svg>
