<svg width="16" height="17" viewBox="0 0 16 17" fill="none" xmlns="http://www.w3.org/2000/svg">
<path d="M12 5.83415H13.3333C13.5101 5.83415 13.6797 5.90439 13.8047 6.02941C13.9298 6.15443 14 6.324 14 6.50081V14.5008C14 14.6776 13.9298 14.8472 13.8047 14.9722C13.6797 15.0972 13.5101 15.1675 13.3333 15.1675H2.66667C2.48986 15.1675 2.32029 15.0972 2.19526 14.9722C2.07024 14.8472 2 14.6776 2 14.5008V6.50081C2 6.324 2.07024 6.15443 2.19526 6.02941C2.32029 5.90439 2.48986 5.83415 2.66667 5.83415H4V5.16748C4 4.10661 4.42143 3.0892 5.17157 2.33905C5.92172 1.58891 6.93913 1.16748 8 1.16748C9.06087 1.16748 10.0783 1.58891 10.8284 2.33905C11.5786 3.0892 12 4.10661 12 5.16748V5.83415ZM7.33333 10.9888V12.5008H8.66667V10.9888C8.92086 10.8421 9.11952 10.6155 9.23184 10.3444C9.34416 10.0732 9.36387 9.77253 9.2879 9.48902C9.21193 9.20551 9.04454 8.95499 8.81168 8.77631C8.57882 8.59763 8.29351 8.50078 8 8.50078C7.70649 8.50078 7.42118 8.59763 7.18832 8.77631C6.95546 8.95499 6.78807 9.20551 6.7121 9.48902C6.63613 9.77253 6.65584 10.0732 6.76816 10.3444C6.88048 10.6155 7.07914 10.8421 7.33333 10.9888ZM10.6667 5.83415V5.16748C10.6667 4.46024 10.3857 3.78196 9.88562 3.28186C9.38552 2.78177 8.70724 2.50081 8 2.50081C7.29276 2.50081 6.61448 2.78177 6.11438 3.28186C5.61428 3.78196 5.33333 4.46024 5.33333 5.16748V5.83415H10.6667Z" fill="black"/>
</svg>
