<svg width="91" height="35" viewBox="0 0 91 35" fill="none" xmlns="http://www.w3.org/2000/svg">
<g clip-path="url(#clip0_804_5912)">
<path d="M15.1738 4.65088C6.79553 4.65088 0 11.4464 0 19.8246C0 28.2029 6.79553 34.998 15.1738 34.998C23.552 34.998 30.3471 28.2033 30.3471 19.8251C30.3471 11.4469 23.552 4.65133 15.1738 4.65133V4.65088ZM15.1171 9.41124C20.8712 9.41124 25.5301 14.0705 25.5301 19.8246C25.5301 25.5788 20.8712 30.2376 15.1171 30.2376C9.36295 30.2376 4.68964 25.5788 4.68964 19.8246C4.68964 14.0705 9.36295 9.41124 15.1171 9.41124Z" fill="#FEB511"/>
<path d="M34.8526 7.92312V21.1415H37.4881V11.9749L42.1632 21.1415H45.0108V7.92312H42.3763V16.1685L38.0548 7.92357H35.4194L34.8526 7.92312ZM51.0324 11.196C50.3698 11.195 49.7135 11.3248 49.1011 11.578C48.4887 11.8311 47.9323 12.2026 47.4637 12.6711C46.9951 13.1396 46.6236 13.696 46.3704 14.3084C46.1172 14.9208 45.9874 15.5771 45.9883 16.2397C45.9883 19.0302 48.2415 21.2975 51.0324 21.2975C53.8234 21.2975 56.0902 19.0302 56.0902 16.2392C56.0902 13.4488 53.8229 11.196 51.0324 11.196ZM51.046 13.6469C52.4741 13.6469 53.6248 14.812 53.6248 16.2392C53.6248 17.6674 52.4737 18.818 51.0465 18.818C49.6193 18.818 48.4537 17.6669 48.4537 16.2392C48.4552 15.5521 48.7289 14.8936 49.2148 14.4077C49.7008 13.9219 50.3594 13.6483 51.0465 13.6469H51.046ZM56.7739 11.41V21.1415H59.6365V17.1913C59.6365 15.7909 59.942 14.9626 60.4502 14.3623C60.9775 13.7398 61.4409 13.3744 62.8563 13.3558L63.9298 13.3703L63.9444 17.821C63.9466 18.502 63.9806 19.0764 64.1334 19.5656C64.4848 20.69 65.3394 21.3061 66.9923 21.3061C67.7477 21.3061 68.4839 21.205 69.1821 20.9479L68.8389 18.9731C68.5111 19.0986 68.1203 19.178 67.8225 19.1807C66.9828 19.1884 66.7892 18.8212 66.792 17.943V13.3703H68.853L68.8602 11.4095H66.792L66.7852 8.6544L64.4739 8.6476L63.9797 11.4095H62.6346C62.2048 11.4095 61.8743 11.4131 61.5488 11.4957C60.1705 11.8429 59.6047 12.8567 59.257 13.4918L58.4486 11.4095L56.7739 11.41ZM74.2313 11.196C73.5687 11.1951 72.9124 11.3249 72.3001 11.5781C71.6877 11.8312 71.1314 12.2027 70.6628 12.6713C70.1943 13.1398 69.8228 13.6962 69.5697 14.3085C69.3165 14.9208 69.1867 15.5771 69.1876 16.2397C69.1876 19.0302 71.4408 21.2975 74.2313 21.2975C77.0218 21.2975 79.289 19.0302 79.289 16.2392C79.289 13.4488 77.0222 11.196 74.2313 11.196ZM74.2453 13.6469C75.673 13.6469 76.8241 14.812 76.8241 16.2392C76.8241 17.6674 75.673 18.818 74.2453 18.818C72.8177 18.818 71.6525 17.6669 71.6525 16.2392C71.6541 15.552 71.9278 14.8934 72.4138 14.4076C72.8999 13.9217 73.5586 13.6482 74.2458 13.6469H74.2453ZM85.5732 11.196C84.2638 11.2028 83.1885 11.833 82.187 12.9097L81.6343 11.4082H79.9627V21.1415H82.7537V14.4543C83.0393 14.1311 83.6844 13.5326 84.5105 13.5335C85.5596 13.5345 85.9404 14.2091 85.9413 14.9644L85.9558 21.1415H88.8034V14.8791C88.8057 12.4436 87.3889 11.1856 85.5732 11.196ZM89.0623 12.5379V11.6076H88.7903V11.4145H89.5506V11.6076H89.2718V12.5379H89.0623ZM89.6943 12.5379V11.4145H89.9967L90.198 12.1585L90.3875 11.415H90.6736V12.5379H90.5144V11.6634L90.2664 12.5379H90.1155L89.8888 11.6475V12.5379H89.6943ZM30.489 1.19332V2.35531H31.651V1.19287L30.489 1.19332ZM30.489 2.35531H28.3355V3.51683H30.489V2.35531ZM28.3355 3.51683H27.2587V5.78367H28.3355V3.51683ZM28.3355 5.78367V6.88898H29.4408V5.78367H28.3355ZM29.4408 5.78367H30.659V4.69287H29.4403L29.4408 5.78367ZM28.3355 6.88898H27.2587V8.0224H26.1394V6.88898H24.3118V7.69598H23.3199V8.68795H24.4111V9.79326H23.3058L23.3203 8.68795H22.1298V10.4307H21.0249V11.5215H20.2742V12.6268H19.4808C17.7743 15.425 16.4051 18.0101 15.6126 19.9229C13.4378 17.0272 12.4177 15.9845 10.5839 14.9644C9.9283 14.5999 9.34436 14.4303 8.9259 14.667C8.49112 14.9127 8.36372 15.6889 8.9123 16.2959C12.3171 20.067 12.9296 22.0791 14.1682 24.9525C14.5372 25.8094 15.2336 26.1771 16.0243 26.1993C16.4468 26.2111 16.9655 26.0832 17.3132 25.6752C17.4746 25.4861 17.5218 25.2273 17.6532 24.9099C18.6883 22.4146 19.8366 19.9124 21.4933 17.5291L21.5069 16.2823H22.3855L22.3714 15.177H23.3203L23.3067 13.8591H24.4116V12.6549H23.2922L23.3063 11.5215H24.4116V12.6549H25.5164V11.5074H26.381V10.1614H27.3866V9.2406H28.3355V6.88898ZM26.1394 6.88898H27.2587V5.78367H26.1394V6.88898ZM26.1394 5.78367V4.72098H25.0205V5.78367H26.1394Z" fill="black"/>
<path d="M28.3354 3.52246H29.4385V4.68625H28.3354V3.52246ZM31.645 2.35866H32.8388V3.52246H31.645V2.35866ZM31.645 0.00341797H32.8388V1.19487H31.645V0.00341797Z" fill="#FEB511"/>
<path d="M35.4795 31.609H34.9536V24.356H35.8395V27.0372C36.1899 26.5984 36.6809 26.296 37.2241 26.3128C38.6962 26.3581 39.2402 27.6701 39.2565 28.9378C39.2765 30.4574 38.4409 31.6956 37.0917 31.7096C36.5141 31.7155 36.0109 31.4585 35.6817 30.9761L35.4795 31.609ZM35.8449 30.462C36.2067 30.7952 36.2765 30.9756 36.977 30.982C38.0297 30.9915 38.2999 29.8232 38.2977 29.0117C38.2949 27.9884 38.0134 27.112 37.0999 27.0857C36.5245 27.069 36.1319 27.3532 35.8563 27.6642L35.8449 30.462ZM40.0223 33.4197L40.1379 32.751C40.8814 32.8988 41.4182 32.7383 41.7106 31.9186L39.8686 26.4175H40.7907L42.0919 30.8025L43.321 26.4175H44.2218L42.4324 32.1163C42.0194 33.432 41.0537 33.6646 40.0223 33.4197ZM46.9339 30.8446L47.3845 30.2221C48.0709 30.7136 48.5877 30.9131 49.4319 30.9167C50.345 30.9212 50.928 30.4461 50.923 29.7112C50.909 27.647 47.3677 28.8045 47.307 26.053C47.2802 24.847 48.3543 24.2531 49.3902 24.2477C50.1723 24.2436 50.9058 24.3619 51.405 24.7146L51.0151 25.4155C50.7807 25.183 49.937 25.0275 49.4786 25.0238C48.6807 25.0179 48.1765 25.3339 48.1534 26.0045C48.0863 27.9775 51.8184 26.8917 51.8121 29.6903C51.8098 30.9951 50.8355 31.6738 49.4292 31.6861C48.1303 31.6974 47.1642 31.1103 46.9339 30.8446ZM57.6819 31.6022V26.4256H58.2282L58.4408 27.2698C58.8706 26.6977 59.615 26.3159 60.2416 26.3177C60.9819 26.32 61.2966 26.8418 61.3918 27.2245C61.8587 26.6804 62.4853 26.3177 63.1195 26.3128C64.2122 26.3037 64.4629 27.1007 64.4629 27.9947V31.6022L63.5765 31.6054V28.2808C63.5765 27.5527 63.489 27.0803 62.8652 27.093C62.1738 27.108 61.8057 27.5627 61.5536 27.7876V31.6054H60.6337V28.1824C60.6337 27.4879 60.5208 27.0857 59.931 27.0984C59.3371 27.1111 59.1635 27.3501 58.5877 27.8066V31.6058L57.6819 31.6022ZM68.8565 30.9852C68.3981 31.4653 67.8087 31.6956 67.2565 31.6906C66.3765 31.682 65.6634 31.1466 65.667 30.2761C65.6706 29.2139 66.4033 28.9196 67.0312 28.7111C67.6505 28.5052 68.1447 28.4341 68.7064 28.3361C68.7304 27.4126 68.535 27.0712 67.7797 27.0662C67.0988 27.0617 66.5148 27.3714 66.2632 27.5015L65.9422 26.9094C66.1907 26.7158 66.8159 26.3232 67.8396 26.3141C68.9621 26.305 69.6313 26.9352 69.6317 28.114L69.6331 31.6054H69.0872L68.8565 30.9852ZM68.7137 28.9391C68.156 29.0479 67.85 29.14 67.4125 29.2791C66.8508 29.4573 66.5792 29.7407 66.586 30.2561C66.5928 30.7966 66.9487 31.0047 67.3921 30.9942C67.9225 30.982 68.2644 30.8083 68.71 30.4724L68.7137 28.9391ZM79.0037 30.904L79.1388 31.5197C78.8278 31.6911 78.3627 31.6793 78.1763 31.6802C77.0828 31.6833 76.9187 30.9743 76.9187 30.1659V27.0622H76.1462V26.4175H76.9187L77.1835 24.9418L77.8168 24.9395V26.4175H78.982V27.0622H77.8168V30.2131C77.8168 30.982 78.1374 30.9852 78.4389 30.9974C78.729 31.0096 79.0033 30.904 79.0033 30.904H79.0037ZM83.5039 30.4683L83.8802 31.0056C83.4862 31.3148 83.0442 31.6924 82.0939 31.6956C80.5107 31.7001 79.8044 30.4887 79.8107 29.0484C79.8175 27.613 80.4804 26.3223 81.9398 26.3146C83.7541 26.3041 84.0098 28.0564 84.0089 29.2778H80.7705C80.7719 30.2589 81.1708 30.9702 81.9874 30.9779C82.8306 30.9856 83.5039 30.4683 83.5039 30.4683ZM80.7701 28.6571H83.0723C83.0269 27.8442 82.817 26.9887 81.9479 26.9996C81.0162 27.0109 80.8326 27.8701 80.7701 28.6571ZM88.7258 31.0051C88.3554 31.3642 87.7664 31.6756 87.0061 31.6811C85.5495 31.692 84.8322 30.5685 84.8322 29.0162C84.8318 27.4702 85.6107 26.3155 87.1254 26.3128C87.7968 26.3114 88.2796 26.5793 88.6269 26.8613L88.2348 27.4566C88.0162 27.2825 87.5357 27.0404 87.1154 27.0463C86.0844 27.0608 85.7635 27.8202 85.7657 28.9922C85.768 29.9683 85.9842 30.9548 87.1109 30.9652C87.4459 30.9684 87.8508 30.8496 88.286 30.4719L88.7258 31.0051ZM52.5021 33.4197L52.6173 32.751C53.3608 32.8988 53.898 32.7383 54.1905 31.9186L52.348 26.4175H53.2706L54.5718 30.8025L55.8008 26.4175H56.7017L54.9122 32.1163C54.4992 33.432 53.5331 33.6646 52.5021 33.4197ZM71.1414 31.6022V26.4256H71.6877L71.8999 27.2698C72.3302 26.6977 73.1354 26.3118 73.863 26.3177C74.806 26.3254 75.1751 27.1565 75.1751 28.0306V31.6054H74.2552V28.1824C74.2552 27.4879 74.1418 27.0857 73.5524 27.0984C72.9585 27.1111 72.623 27.3501 72.0468 27.8066V31.6058L71.1414 31.6022Z" fill="#999999"/>
</g>
<defs>
<clipPath id="clip0_804_5912">
<rect width="90.6736" height="35" fill="white" transform="translate(0 0.000488281)"/>
</clipPath>
</defs>
</svg>
