<svg width="89" height="89" viewBox="0 0 89 89" fill="none" xmlns="http://www.w3.org/2000/svg">
<g clip-path="url(#clip0_28_2619)">
<path d="M44.4241 0.543945C20.1869 0.543945 0.543884 20.187 0.543884 44.4241C0.543884 68.6612 20.1869 88.3043 44.4241 88.3043C68.6612 88.3043 88.3042 68.6612 88.3042 44.4241C88.3042 20.187 68.6542 0.543945 44.4241 0.543945ZM44.4241 72.413C28.9644 72.413 16.4351 59.8838 16.4351 44.4241C16.4351 28.9644 28.9644 16.4352 44.4241 16.4352C59.8837 16.4352 72.413 28.9644 72.413 44.4241C72.413 59.8838 59.8768 72.413 44.4241 72.413Z" fill="#FFC947"/>
<path d="M12.6763 37.2417L6.67621 35.3902L7.05905 34.1442L9.34911 34.8472L10.0661 32.5154L7.776 31.8124L8.15884 30.5664L14.159 32.4179L13.7761 33.6639L11.0962 32.8356L10.3793 35.1674L13.0592 35.9957L12.6763 37.2417Z" fill="#2A152A"/>
<path d="M11.1521 24.5516L11.869 23.25L14.2914 26.9879L16.3517 28.1294L15.7183 29.278L13.6579 28.1364L9.1683 28.1434L9.9131 26.786L12.941 26.967L11.1521 24.5516Z" fill="#2A152A"/>
<path d="M18.8368 20.2223C18.8368 20.7025 18.614 21.2037 18.1685 21.7188L17.3263 22.7142L19.0526 24.1759L18.2103 25.1713L13.4144 21.1132L15.1546 19.0529C15.5583 18.5795 15.9968 18.3011 16.4841 18.2315C16.9713 18.1549 17.4725 18.3429 17.9876 18.7814C18.5583 19.2686 18.8368 19.742 18.8368 20.2223ZM16.4632 19.5262C16.2474 19.561 16.0455 19.6933 15.8506 19.923L15.085 20.8278L16.498 22.0251L17.2637 21.1202C17.4586 20.8905 17.549 20.6677 17.5421 20.438C17.5351 20.2153 17.4029 19.9995 17.1592 19.7837C16.9087 19.5749 16.679 19.4914 16.4632 19.5262Z" fill="#2A152A"/>
<path d="M25.9227 17.0061C25.8461 17.6813 25.4493 18.2939 24.7393 18.8437C24.0293 19.3936 23.3402 19.6164 22.6651 19.5259C21.795 19.4424 21.0154 18.9551 20.3263 18.0572C19.6232 17.1453 19.3448 16.2683 19.4979 15.4261C19.5745 14.7509 19.9713 14.1383 20.6813 13.5884C21.3912 13.0385 22.0804 12.8158 22.7555 12.9063C23.6117 12.9759 24.3913 13.4631 25.0943 14.375C25.7834 15.266 26.0619 16.143 25.9227 17.0061ZM24.6906 16.7555C24.6976 16.2683 24.4818 15.7393 24.0502 15.1824C23.6187 14.6256 23.1662 14.2845 22.6859 14.1731C22.2056 14.0548 21.7671 14.1522 21.3564 14.4724C20.9458 14.7926 20.7369 15.1963 20.723 15.6906C20.7091 16.1848 20.9249 16.7068 21.3564 17.2706C21.788 17.8275 22.2474 18.1686 22.7277 18.2799C23.208 18.3913 23.6535 18.2939 24.0641 17.9737C24.4748 17.6465 24.6837 17.2428 24.6906 16.7555Z" fill="#2A152A"/>
<path d="M27.3564 9.64905L28.6998 9.01562L33.3773 13.7559L32.0896 14.3614L31.1708 13.3661L29.0756 14.3475L29.2357 15.6979L27.9898 16.2826L27.3564 9.64905ZM28.9364 13.2199L30.3912 12.5377L28.6232 10.6375L28.9364 13.2199Z" fill="#2A152A"/>
<path d="M33.2449 7.28296L34.5187 6.96973L35.7438 11.9745L38.7926 11.2297L39.064 12.3295L34.7414 13.3875L33.2449 7.28296Z" fill="#2A152A"/>
<path d="M40.1988 5.87637L41.5074 5.7998L41.7997 10.9438L44.932 10.7628L44.9947 11.8904L40.5538 12.141L40.1988 5.87637Z" fill="#2A152A"/>
<path d="M51.7814 7.44951L48.482 7.01795L48.308 8.34048L51.3359 8.7442L51.1897 9.8231L48.1618 9.41938L47.953 11.0203L51.3985 11.4797L51.2524 12.6004L46.533 11.974L47.3544 5.74414L51.9206 6.34972L51.7814 7.44951Z" fill="#2A152A"/>
<path d="M58.6516 8.53524C58.8396 8.70229 58.9718 8.91111 59.0623 9.14082C59.1319 9.33572 59.1737 9.53758 59.1876 9.7464C59.1946 9.95522 59.1598 10.178 59.0762 10.4077C58.9788 10.6861 58.8117 10.9436 58.5751 11.1664C58.3384 11.3891 58.0321 11.5005 57.6702 11.4935C57.9068 11.7024 58.046 11.9251 58.0878 12.1687C58.1296 12.4123 58.0809 12.7395 57.9347 13.1571L57.7955 13.5539C57.698 13.8254 57.6493 14.0133 57.6354 14.1177C57.6145 14.2848 57.6493 14.424 57.7467 14.5354L57.6911 14.6815L56.3267 14.2012C56.3337 14.0551 56.3476 13.9437 56.3546 13.8532C56.3824 13.6792 56.4242 13.4982 56.4799 13.3242L56.6678 12.7673C56.7931 12.3845 56.821 12.113 56.7374 11.946C56.6539 11.7789 56.4451 11.6327 56.097 11.5075L54.8859 11.0829L54.0715 13.4077L52.8603 12.9831L54.9416 7.05957L57.7746 8.05495C58.1713 8.20808 58.4637 8.36818 58.6516 8.53524ZM55.7838 8.51436L55.2269 10.1084L56.5564 10.5747C56.821 10.6652 57.0298 10.707 57.1829 10.6861C57.4544 10.6582 57.6493 10.4773 57.7676 10.1432C57.8929 9.7812 57.8651 9.50277 57.6841 9.30091C57.5797 9.18954 57.4057 9.08513 57.1481 8.99464L55.7838 8.51436Z" fill="#2A152A"/>
<path d="M65.118 13.9929C65.2572 13.5753 65.2154 13.1924 64.9718 12.8444C64.8396 12.6495 64.6586 12.4825 64.4358 12.3432C64.0043 12.0787 63.5518 12.0161 63.0785 12.1692C62.5982 12.3224 62.1597 12.7191 61.756 13.3734C61.3453 14.0277 61.2061 14.5846 61.3383 15.044C61.4706 15.5034 61.7212 15.8514 62.104 16.0881C62.4799 16.3178 62.8488 16.4013 63.2247 16.3387C63.5936 16.276 63.9207 16.0811 64.1922 15.7679L62.9602 15.0022L63.517 14.1113L65.7375 15.4964L63.9555 18.3573L63.2177 17.8979L63.517 17.16C63.1481 17.2784 62.8418 17.3341 62.6052 17.3341C62.2014 17.3341 61.7838 17.1948 61.3522 16.9303C60.6492 16.4918 60.2176 15.8862 60.0715 15.1136C59.9044 14.327 60.0924 13.5126 60.6214 12.6565C61.1573 11.7933 61.8256 11.2504 62.6261 11.0277C63.4265 10.8049 64.2131 10.9372 64.9996 11.4244C65.6748 11.849 66.1134 12.3572 66.3083 12.9558C66.5032 13.5544 66.4753 14.1321 66.2108 14.682L65.118 13.9929Z" fill="#2A152A"/>
<path d="M72.2877 19.0462L69.9002 16.7353L68.9744 17.6958L71.167 19.8189L70.4083 20.6054L68.2157 18.4824L67.095 19.6448L69.5939 22.0602L68.8073 22.8746L65.3827 19.5683L69.747 15.0508L73.0603 18.2527L72.2877 19.0462Z" fill="#2A152A"/>
<path d="M75.023 20.5566L75.7956 21.6912L73.5821 26.2157L77.2016 23.7516L77.8907 24.7609L72.6981 28.2969L71.9603 27.2111L74.2016 22.5892L70.5194 25.102L69.8303 24.0927L75.023 20.5566Z" fill="#2A152A"/>
<path d="M74.0213 31.1084L73.4644 29.9321L79.1374 27.2383L79.6942 28.4146L74.0213 31.1084Z" fill="#2A152A"/>
<path d="M80.3966 31.7974C81.037 32.1385 81.4686 32.6814 81.6913 33.4262C81.9906 34.4285 81.8723 35.2569 81.3433 35.9181C81.044 36.287 80.7099 36.5307 80.3409 36.6629L79.9651 35.403C80.2296 35.236 80.4175 35.0689 80.5289 34.9019C80.7238 34.6026 80.7586 34.2267 80.6263 33.7882C80.4941 33.3427 80.2017 33.0434 79.7562 32.8902C79.3108 32.7441 78.7469 32.7649 78.0717 32.9668C77.3966 33.1687 76.9302 33.454 76.6726 33.823C76.4151 34.1988 76.3524 34.5956 76.4777 35.0132C76.603 35.4448 76.8467 35.7302 77.2017 35.8694C77.3966 35.946 77.6611 35.9808 77.9952 35.9738L78.3641 37.2267C77.675 37.3102 77.0624 37.1989 76.5195 36.8717C75.9766 36.5515 75.6007 36.0434 75.3988 35.3473C75.1482 34.4912 75.2248 33.7325 75.6355 33.0782C76.0462 32.4239 76.7422 31.9505 77.7167 31.6652C78.7678 31.3659 79.6588 31.4076 80.3966 31.7974Z" fill="#2A152A"/>
<path d="M6.2796 56.7454L12.1266 54.4414L12.6069 55.6526L10.3794 56.5296L11.2774 58.7988L13.5048 57.9217L13.9851 59.1329L8.1381 61.4369L7.65782 60.2257L10.2681 59.1956L9.37014 56.9264L6.75989 57.9566L6.2796 56.7454Z" fill="#2A152A"/>
<path d="M16.6926 63.6577L17.4931 64.9106L13.0522 65.2517L11.0684 66.5185L10.3654 65.4118L12.3491 64.1449L14.493 60.1982L15.3283 61.4999L13.7204 64.0684L16.6926 63.6577Z" fill="#2A152A"/>
<path d="M18.5511 71.3348C18.0778 71.2791 17.6045 71.0007 17.1381 70.4995L16.2471 69.5459L14.5974 71.0912L13.7065 70.1375L18.2936 65.8428L20.1382 67.8127C20.5628 68.2651 20.7855 68.7384 20.7994 69.2326C20.8133 69.7269 20.5767 70.2002 20.0825 70.6666C19.5395 71.1747 19.0314 71.3974 18.5511 71.3348ZM19.5187 69.0586C19.5047 68.8428 19.4003 68.6271 19.1915 68.4043L18.3841 67.5412L17.0407 68.808L17.8481 69.6712C18.05 69.887 18.2657 70.0053 18.4885 70.0262C18.7112 70.0471 18.9409 69.9426 19.1845 69.7199C19.4212 69.4972 19.5326 69.2744 19.5187 69.0586Z" fill="#2A152A"/>
<path d="M23.236 77.7594C22.5678 77.8778 21.8648 77.6829 21.1339 77.1608C20.403 76.6387 19.9854 76.0401 19.8879 75.3649C19.7209 74.5088 19.9645 73.6178 20.6188 72.699C21.287 71.7662 22.0458 71.2442 22.9019 71.1467C23.5701 71.0284 24.2732 71.2233 25.004 71.7453C25.7349 72.2674 26.1526 72.866 26.25 73.5412C26.431 74.3765 26.1874 75.2675 25.5191 76.2002C24.8579 77.119 24.0992 77.6411 23.236 77.7594ZM23.1177 76.5065C23.591 76.3742 24.0296 76.0192 24.4402 75.4415C24.8509 74.8707 25.0389 74.3347 25.018 73.8475C24.9901 73.3602 24.7674 72.9635 24.3497 72.6572C23.9251 72.3579 23.4797 72.2674 23.0063 72.3997C22.533 72.5319 22.0875 72.8869 21.6768 73.4577C21.2662 74.0285 21.0713 74.5644 21.1061 75.0587C21.1339 75.5529 21.3636 75.9496 21.7812 76.2489C22.1989 76.5552 22.6513 76.6388 23.1177 76.5065Z" fill="#2A152A"/>
<path d="M30.2243 75.0244L31.5816 75.623L31.0874 82.2635L29.7858 81.6928L29.925 80.3424L27.8089 79.4096L26.8971 80.4189L25.6372 79.8691L30.2243 75.0244ZM28.5676 78.5674L30.0433 79.2147L30.3148 76.6323L28.5676 78.5674Z" fill="#2A152A"/>
<path d="M34.8253 76.8203L36.106 77.1196L34.9436 82.1383L37.9993 82.8483L37.7418 83.948L33.4053 82.9457L34.8253 76.8203Z" fill="#2A152A"/>
<path d="M40.5123 77.9756L41.821 78.0522L41.5356 83.1961L44.6679 83.3701L44.6052 84.4977L40.1643 84.2472L40.5123 77.9756Z" fill="#2A152A"/>
<path d="M51.0439 78.7055L47.7445 79.1023L47.9046 80.4248L50.9325 80.0559L51.0648 81.1417L48.0369 81.5107L48.2318 83.1116L51.6843 82.694L51.8235 83.8146L47.0972 84.3854L46.3385 78.1487L50.9116 77.5918L51.0439 78.7055Z" fill="#2A152A"/>
<path d="M56.3548 76.1794C56.6054 76.2003 56.8351 76.2838 57.0509 76.4161C57.2249 76.5275 57.378 76.6597 57.5173 76.8198C57.6495 76.9799 57.7539 77.1748 57.8305 77.4115C57.921 77.6969 57.9419 77.9962 57.8862 78.3164C57.8305 78.6366 57.6565 78.908 57.3641 79.1308C57.6773 79.1516 57.921 79.2491 58.102 79.4162C58.2829 79.5832 58.443 79.8756 58.5753 80.2932L58.7075 80.6969C58.798 80.9684 58.8676 81.1494 58.9233 81.2399C59.0068 81.386 59.1182 81.4696 59.2644 81.5044L59.3131 81.6575L57.9349 82.103C57.8514 81.9847 57.7957 81.8872 57.747 81.8106C57.6634 81.6506 57.5869 81.4905 57.5242 81.3164L57.3363 80.7665C57.204 80.3907 57.0578 80.154 56.8908 80.0705C56.7237 79.9869 56.4662 80.0009 56.1182 80.1122L54.9 80.509L55.6587 82.8548L54.4406 83.2515L52.4986 77.2792L55.3594 76.3534C55.7771 76.2073 56.1042 76.1585 56.3548 76.1794ZM54.0648 77.8987L54.5868 79.5066L55.9302 79.0681C56.1947 78.9846 56.3896 78.8871 56.501 78.7758C56.7029 78.5878 56.7446 78.3233 56.6402 77.9892C56.5219 77.6272 56.327 77.4184 56.0625 77.3697C55.9093 77.3419 55.7075 77.3697 55.4499 77.4532L54.0648 77.8987Z" fill="#2A152A"/>
<path d="M63.4335 74.6549C63.1341 74.3348 62.7722 74.1955 62.3546 74.2373C62.1179 74.2651 61.8882 74.3417 61.6585 74.474C61.22 74.7246 60.9555 75.1004 60.865 75.5877C60.7745 76.0819 60.9137 76.6596 61.2965 77.3209C61.6794 77.9891 62.104 78.3789 62.5703 78.4764C63.0367 78.5808 63.4613 78.5181 63.8511 78.2954C64.2339 78.0796 64.4845 77.7873 64.6029 77.4253C64.7212 77.0633 64.7073 76.6944 64.5611 76.3046L63.3012 77.0285L62.7792 76.1167L65.0483 74.815L66.7259 77.7385L65.9741 78.1701L65.4729 77.5576C65.4033 77.9404 65.3059 78.2327 65.1945 78.4416C64.9996 78.7966 64.6794 79.1028 64.2409 79.3534C63.517 79.7641 62.7861 79.8546 62.0344 79.6179C61.2687 79.3882 60.6283 78.8383 60.1341 77.9682C59.626 77.0842 59.4659 76.242 59.6468 75.4276C59.8278 74.6201 60.3151 73.9798 61.1156 73.5273C61.8047 73.1306 62.4659 72.9844 63.0854 73.0958C63.7049 73.2071 64.1991 73.5064 64.5611 73.9937L63.4335 74.6549Z" fill="#2A152A"/>
<path d="M69.1552 69.0659L66.6563 71.2515L67.5333 72.2538L69.8304 70.2422L70.5473 71.0636L68.2503 73.0752L69.3153 74.2933L71.9325 72.0033L72.6773 72.8525L69.0925 75.9847L64.9579 71.2585L68.4243 68.2236L69.1552 69.0659Z" fill="#2A152A"/>
<path d="M69.517 67.0819L70.3593 65.996L75.3501 66.713L71.8906 64.0261L72.6424 63.0586L77.5984 66.9148L76.7909 67.952L71.7027 67.235L75.2178 69.9706L74.4661 70.9381L69.517 67.0819Z" fill="#2A152A"/>
<path d="M79.5543 63.5672L78.914 64.7018L73.4498 61.6043L74.0902 60.4697L79.5543 63.5672Z" fill="#2A152A"/>
<path d="M75.8027 58.6108C75.5034 57.9496 75.4965 57.2605 75.7749 56.5296C76.1508 55.5551 76.7494 54.9704 77.5707 54.7686C78.0301 54.6572 78.4478 54.6711 78.8167 54.7895L78.3434 56.0145C78.0301 55.9867 77.7796 56.0006 77.5916 56.0702C77.2506 56.1885 77 56.46 76.8329 56.8916C76.6659 57.3301 76.7076 57.7408 76.9721 58.1306C77.2366 58.5204 77.6891 58.8475 78.3503 59.0981C79.0046 59.3556 79.5476 59.4113 79.9791 59.2721C80.4107 59.1329 80.7031 58.8614 80.8631 58.4508C81.0232 58.0331 81.0093 57.6572 80.8144 57.3301C80.71 57.1491 80.5221 56.9612 80.2506 56.7663L80.7239 55.5482C81.3226 55.9032 81.7402 56.3695 81.9699 56.9542C82.1996 57.5389 82.1857 58.1723 81.9281 58.8405C81.6079 59.6758 81.0789 60.2257 80.355 60.4902C79.6241 60.7547 78.7889 60.706 77.8422 60.3371C76.826 59.9403 76.1438 59.3626 75.8027 58.6108Z" fill="#2A152A"/>
<path d="M8.97448 45.9045C9.16594 45.1242 8.68859 44.3364 7.90827 44.145C7.12796 43.9535 6.34017 44.4308 6.14871 45.2112C5.95724 45.9915 6.43461 46.7792 7.21492 46.9707C7.99524 47.1622 8.78302 46.6848 8.97448 45.9045Z" fill="#2A152A"/>
<path d="M81.3531 46.9019C82.0954 46.5944 82.4479 45.7434 82.1404 45.0011C81.8329 44.2588 80.9819 43.9063 80.2396 44.2138C79.4973 44.5212 79.1448 45.3723 79.4522 46.1146C79.7597 46.8569 80.6107 47.2094 81.3531 46.9019Z" fill="#2A152A"/>
<path d="M58.7215 51.1835C58.7215 58.172 52.3246 65.2441 44.4382 65.2441C36.5517 65.2441 30.1548 58.1651 30.1548 51.1835C30.1548 37.9095 44.4382 23.7793 44.4382 23.7793C44.4382 23.7793 58.7215 36.935 58.7215 51.1835Z" fill="#FFC947"/>
<path d="M44.3267 56.0412L37.2129 48.9273L40.6584 45.4818L44.3267 49.1501L59.6263 33.8574L63.0718 37.303L44.3267 56.0412Z" fill="white"/>
</g>
<defs>
<clipPath id="clip0_28_2619">
<rect width="87.7603" height="87.7603" fill="white" transform="translate(0.543884 0.543945)"/>
</clipPath>
</defs>
</svg>
