<svg width="16" height="16" viewBox="0 0 16 16" fill="none" xmlns="http://www.w3.org/2000/svg">
<path d="M5.23599 3.29258C5.14306 3.38545 5.06935 3.49572 5.01905 3.61708C4.96876 3.73845 4.94287 3.86854 4.94287 3.99992C4.94287 4.13129 4.96876 4.26138 5.01905 4.38275C5.06935 4.50412 5.14306 4.61438 5.23599 4.70725L8.29266 7.76458C8.35515 7.82709 8.39025 7.91186 8.39025 8.00025C8.39025 8.08864 8.35515 8.17341 8.29266 8.23592L5.23599 11.2926C5.04839 11.4801 4.94297 11.7344 4.94291 11.9997C4.94284 12.2649 5.04815 12.5193 5.23566 12.7069C5.42317 12.8945 5.67752 12.9999 5.94276 13C6.20799 13.0001 6.46239 12.8948 6.64999 12.7072L9.70732 9.64992C9.92402 9.43324 10.0959 9.17601 10.2132 8.8929C10.3305 8.60979 10.3908 8.30635 10.3908 7.99992C10.3908 7.69348 10.3305 7.39004 10.2132 7.10693C10.0959 6.82382 9.92402 6.56659 9.70732 6.34992L6.64999 3.29258C6.46246 3.10511 6.20815 2.9998 5.94299 2.9998C5.67783 2.9998 5.42352 3.10511 5.23599 3.29258Z" fill="white"/>
</svg>
