<svg width="83" height="77" viewBox="0 0 83 77" fill="none" xmlns="http://www.w3.org/2000/svg">
<path d="M15.4742 55.5323C13.8571 60.6144 17.5053 69.0371 17.5053 69.0371L20.2821 76.1504L82.317 51.9339L62.6209 1.47882C62.6209 1.47882 51.3738 2.03457 48.0634 7.16163C45.3204 11.41 47.1973 20.0817 47.1973 20.0817C47.1973 20.0817 32.3117 20.9573 27.677 27.7018C23.742 33.428 25.8147 45.3953 25.8147 45.3953C25.8147 45.3953 17.189 50.1435 15.4742 55.5323Z" fill="white"/>
<path d="M17.4433 68.8709C17.4433 68.8709 14.0722 60.8162 15.7726 55.7921C17.5177 50.6361 25.3435 45.7586 25.3435 45.7586" stroke="black" stroke-width="0.91897" stroke-linecap="round"/>
<path d="M26.2775 51.0356C26.2775 51.0356 22.7456 34.7864 28.3288 27.3857C34.4626 19.2551 53.2315 19.639 53.2315 19.639" stroke="black" stroke-width="0.91897" stroke-linecap="round"/>
<path d="M47.0818 19.7832C47.0818 19.7832 45.3799 12.3331 47.4209 8.36729C50.3827 2.61232 62.5557 1.61284 62.5557 1.61284" stroke="black" stroke-width="0.91897" stroke-linecap="round"/>
</svg>
