<svg width="61" height="71" viewBox="0 0 61 71" fill="none" xmlns="http://www.w3.org/2000/svg">
<path d="M21.1303 5.80866C16.7285 2.79737 7.61228 3.86744 7.61228 3.86744L0.000748233 4.47976L5.34072 70.8594L59.3295 66.5162C59.3295 66.5162 62.0339 55.5849 58.0764 50.9391C54.7971 47.0896 45.9521 46.3916 45.9521 46.3916C45.9521 46.3916 49.3972 31.8837 44.2718 25.5041C39.9202 20.0878 27.8627 18.6289 27.8627 18.6289C27.8627 18.6289 25.7976 9.0016 21.1303 5.80866Z" fill="white"/>
<path d="M7.78939 3.85583C7.78939 3.85583 16.4735 2.94532 20.7957 6.0196C25.2314 9.17458 27.6505 18.073 27.6505 18.073" stroke="black" stroke-width="0.91897" stroke-linecap="round"/>
<path d="M22.3279 17.4487C22.3279 17.4487 38.9061 18.7424 44.3871 26.2192C50.4085 34.4333 44.6396 52.2978 44.6396 52.2978" stroke="black" stroke-width="0.91897" stroke-linecap="round"/>
<path d="M46.2714 46.3667C46.2714 46.3667 53.8962 46.8807 57.1068 49.9767C61.766 54.4694 59.2201 66.415 59.2201 66.415" stroke="black" stroke-width="0.91897" stroke-linecap="round"/>
</svg>
