<svg width="31" height="31" viewBox="0 0 31 31" fill="none" xmlns="http://www.w3.org/2000/svg">
<path fill-rule="evenodd" clip-rule="evenodd" d="M2.76255 15.9001C3.72535 11.9853 3.6623 8.2154 3.77769 4.24459C3.80011 3.46912 3.19094 2.8244 2.4178 2.80104C1.64419 2.77769 0.998571 3.38968 0.975681 4.16515C0.866367 7.93041 0.95467 11.5135 0.0409172 15.232C-0.144076 15.9841 0.316081 16.7456 1.06726 16.9278C1.81798 17.1146 2.57802 16.6522 2.76255 15.9001Z" fill="white"/>
<path fill-rule="evenodd" clip-rule="evenodd" d="M10.9423 23.4862C17.4741 17.516 23.6283 9.83604 27.9299 2.08129C28.305 1.40392 28.0607 0.54899 27.3842 0.175268C26.7078 -0.198456 25.8539 0.0444851 25.4787 0.721857C21.3192 8.21967 15.3672 15.6474 9.05129 21.4168C8.48043 21.94 8.44072 22.8276 8.96253 23.3975C9.48434 23.9674 10.3715 24.0095 10.9423 23.4862Z" fill="white"/>
<path fill-rule="evenodd" clip-rule="evenodd" d="M12.5966 30.0078C18.5706 30.9935 24.7281 29.3118 30.1602 26.934C30.8689 26.621 31.1922 25.7941 30.8824 25.0887C30.5722 24.3787 29.7449 24.0563 29.0362 24.3646C24.0891 26.5322 18.494 28.1392 13.053 27.2423C12.2897 27.1162 11.568 27.6347 11.4423 28.3962C11.3162 29.1576 11.8338 29.8817 12.5966 30.0078Z" fill="white"/>
</svg>
