<svg width="69" height="56" viewBox="0 0 69 56" fill="none" xmlns="http://www.w3.org/2000/svg">
<path d="M64.5753 20.9549C67.9298 16.8088 67.5942 7.63612 67.5942 7.63612L67.5942 -8.15753e-10L1.0001 -5.82266e-06L1.0001 54.1632C1.0001 54.1632 11.6794 57.7354 16.6275 54.1632C20.7276 51.2032 22.1326 42.4426 22.1326 42.4426C22.1326 42.4426 36.3176 47.04 43.0876 42.4426C48.8354 38.5394 51.2564 26.6376 51.2564 26.6376C51.2564 26.6376 61.0183 25.3512 64.5753 20.9549Z" fill="white"/>
<path d="M67.5915 7.81348C67.5915 7.81348 67.8027 16.5426 64.3917 20.6044C60.8912 24.7728 51.8274 26.4706 51.8274 26.4706" stroke="black" stroke-width="0.91897" stroke-linecap="round"/>
<path d="M52.8765 21.2151C52.8765 21.2151 50.2576 37.6362 42.3654 42.5C33.6949 47.8434 16.3506 40.6605 16.3506 40.6605" stroke="black" stroke-width="0.91897" stroke-linecap="round"/>
<path d="M22.1316 42.7627C22.1316 42.7627 21.0078 50.3217 17.6644 53.2737C12.8126 57.5577 1.10949 54.0621 1.10949 54.0621" stroke="black" stroke-width="0.91897" stroke-linecap="round"/>
</svg>
