<svg width="68" height="76" viewBox="0 0 68 76" fill="none" xmlns="http://www.w3.org/2000/svg">
<path d="M46.1925 66.2548C50.86 68.8351 59.8337 66.9054 59.8337 66.9054L67.3529 65.5741L55.7425 -0.000101658L2.40885 9.443C2.40885 9.443 0.753178 20.5815 5.13341 24.8311C8.76293 28.3523 17.6343 28.2084 17.6343 28.2084C17.6343 28.2084 15.5804 42.9777 21.2877 48.8424C26.1333 53.8218 38.2748 54.1307 38.2748 54.1307C38.2748 54.1307 41.2435 63.5188 46.1925 66.2548Z" fill="white"/>
<path d="M59.6585 66.9338C59.6585 66.9338 51.0999 68.6636 46.5056 66.0131C41.7907 63.2929 38.5387 54.664 38.5387 54.664" stroke="black" stroke-width="0.91897" stroke-linecap="round"/>
<path d="M43.8966 54.7805C43.8966 54.7805 27.2704 55.0647 21.1052 48.1414C14.3319 40.5352 18.3809 22.2042 18.3809 22.2042" stroke="black" stroke-width="0.91897" stroke-linecap="round"/>
<path d="M17.3187 28.2634C17.3187 28.2634 9.67957 28.4747 6.18982 25.6972C1.12562 21.6666 2.5273 9.53328 2.5273 9.53328" stroke="black" stroke-width="0.91897" stroke-linecap="round"/>
</svg>
