<svg width="125" height="26" viewBox="0 0 125 26" fill="none" xmlns="http://www.w3.org/2000/svg">
<rect x="0.774811" y="0.000244141" width="123.568" height="25.7097" rx="11.4265" fill="white"/>
<path d="M16.6349 9.32937L18.3802 4.88559C18.4916 4.60134 18.7735 4.4213 19.0784 4.43952C19.3832 4.45792 19.6415 4.67041 19.7181 4.96604L20.9184 9.58702C20.9951 9.88229 21.2533 10.0948 21.5578 10.1131L26.3235 10.3994C26.6285 10.4174 26.8872 10.6298 26.964 10.9254C27.0408 11.221 26.9184 11.5326 26.6609 11.6968L22.6369 14.2661C22.3796 14.4305 22.2571 14.7417 22.3339 15.0373L23.4029 19.151L16.3854 9.64185C16.4974 9.56451 16.5842 9.4558 16.6349 9.32937Z" fill="#FC902C"/>
<path d="M10.6805 10.7367C10.4452 10.5427 10.3614 10.2194 10.4727 9.93551C10.5841 9.65163 10.8654 9.47152 11.1699 9.48948L15.9362 9.77548C16.0966 9.78392 16.255 9.73677 16.3847 9.64194L23.4021 19.1511L23.5345 19.658C23.6114 19.9536 23.4892 20.265 23.2319 20.4293C22.9743 20.5935 22.6405 20.5734 22.4048 20.3793L18.7178 17.3466C18.482 17.1527 18.1482 17.1327 17.891 17.2968L13.8669 19.8665C13.6098 20.0313 13.2757 20.0117 13.0398 19.8178C12.8038 19.624 12.7195 19.3002 12.8309 19.0158L14.5764 14.5713C14.6879 14.2872 14.6037 13.9634 14.3681 13.7695L10.6805 10.7367Z" fill="#FC902C"/>
<path d="M38.2308 9.32961L39.976 4.88583C40.0875 4.60158 40.3693 4.42154 40.6742 4.43977C40.9791 4.45816 41.2373 4.67065 41.3139 4.96629L42.5142 9.58726C42.591 9.88253 42.8492 10.095 43.1537 10.1133L47.9193 10.3996C48.2243 10.4176 48.4831 10.63 48.5599 10.9256C48.6367 11.2212 48.5143 11.5328 48.2567 11.697L44.2328 14.2664C43.9754 14.4307 43.853 14.742 43.9298 15.0376L44.9987 19.1513L37.9813 9.6421C38.0933 9.56475 38.1801 9.45604 38.2308 9.32961Z" fill="#FC902C"/>
<path d="M32.2764 10.7369C32.0411 10.5429 31.9572 10.2196 32.0686 9.93575C32.18 9.65188 32.4613 9.47177 32.7657 9.48973L37.532 9.77573C37.6925 9.78416 37.8509 9.73701 37.9805 9.64218L44.998 19.1514L45.1303 19.6582C45.2073 19.9538 45.085 20.2652 44.8277 20.4295C44.5702 20.5937 44.2363 20.5737 44.0007 20.3796L40.3137 17.3468C40.0779 17.1529 39.744 17.1329 39.4868 17.297L35.4628 19.8668C35.2057 20.0316 34.8716 20.0119 34.6356 19.8181C34.3997 19.6242 34.3153 19.3005 34.4268 19.0161L36.1722 14.5715C36.2837 14.2875 36.1996 13.9637 35.9639 13.7698L32.2764 10.7369Z" fill="#FC902C"/>
<path d="M59.8267 9.32961L61.5719 4.88583C61.6834 4.60158 61.9653 4.42154 62.2701 4.43977C62.575 4.45816 62.8332 4.67065 62.9098 4.96629L64.1101 9.58726C64.1869 9.88253 64.4451 10.095 64.7496 10.1133L69.5152 10.3996C69.8202 10.4176 70.079 10.63 70.1558 10.9256C70.2326 11.2212 70.1102 11.5328 69.8526 11.697L65.8287 14.2664C65.5713 14.4307 65.4489 14.742 65.5257 15.0376L66.5946 19.1513L59.5772 9.6421C59.6892 9.56475 59.776 9.45604 59.8267 9.32961Z" fill="#FC902C"/>
<path d="M53.8723 10.7369C53.637 10.5429 53.5531 10.2196 53.6645 9.93575C53.7758 9.65188 54.0572 9.47177 54.3616 9.48973L59.1279 9.77573C59.2884 9.78416 59.4468 9.73701 59.5764 9.64218L66.5939 19.1514L66.7262 19.6582C66.8032 19.9538 66.6809 20.2652 66.4236 20.4295C66.1661 20.5937 65.8322 20.5737 65.5966 20.3796L61.9095 17.3468C61.6737 17.1529 61.3399 17.1329 61.0827 17.297L57.0586 19.8668C56.8016 20.0316 56.4675 20.0119 56.2315 19.8181C55.9955 19.6242 55.9112 19.3005 56.0227 19.0161L57.7681 14.5715C57.8796 14.2875 57.7955 13.9637 57.5598 13.7698L53.8723 10.7369Z" fill="#FC902C"/>
<path d="M81.4235 9.32937L83.1687 4.88559C83.2802 4.60134 83.5621 4.4213 83.8669 4.43952C84.1718 4.45792 84.43 4.67041 84.5066 4.96604L85.7069 9.58702C85.7837 9.88229 86.0419 10.0948 86.3464 10.1131L91.112 10.3994C91.417 10.4174 91.6758 10.6298 91.7526 10.9254C91.8294 11.221 91.707 11.5326 91.4494 11.6968L87.4255 14.2661C87.1682 14.4305 87.0457 14.7417 87.1225 15.0373L88.1914 19.151L81.174 9.64185C81.286 9.56451 81.3728 9.4558 81.4235 9.32937Z" fill="#FC902C"/>
<path d="M75.4684 10.7367C75.2331 10.5427 75.1492 10.2194 75.2606 9.93551C75.372 9.65163 75.6533 9.47152 75.9577 9.48948L80.724 9.77548C80.8845 9.78392 81.0429 9.73677 81.1725 9.64194L88.19 19.1511L88.3223 19.658C88.3993 19.9536 88.277 20.265 88.0197 20.4293C87.7622 20.5935 87.4283 20.5734 87.1927 20.3793L83.5057 17.3466C83.2699 17.1527 82.936 17.1327 82.6788 17.2968L78.6548 19.8665C78.3977 20.0313 78.0636 20.0117 77.8276 19.8178C77.5917 19.624 77.5073 19.3002 77.6188 19.0158L79.3642 14.5713C79.4757 14.2872 79.3916 13.9634 79.156 13.7695L75.4684 10.7367Z" fill="#FC902C"/>
<path d="M103.019 9.32961L104.764 4.88583C104.876 4.60158 105.158 4.42154 105.463 4.43977C105.767 4.45816 106.026 4.67065 106.102 4.96629L107.303 9.58726C107.379 9.88253 107.637 10.095 107.942 10.1133L112.708 10.3996C113.013 10.4176 113.271 10.63 113.348 10.9256C113.425 11.2212 113.303 11.5328 113.045 11.697L109.021 14.2664C108.764 14.4307 108.641 14.742 108.718 15.0376L109.787 19.1513L102.77 9.6421C102.882 9.56475 102.968 9.45604 103.019 9.32961Z" fill="#FC902C"/>
<path d="M97.064 10.7369C96.8287 10.5429 96.7448 10.2196 96.8562 9.93575C96.9676 9.65188 97.2489 9.47177 97.5533 9.48973L102.32 9.77573C102.48 9.78416 102.638 9.73701 102.768 9.64218L109.786 19.1514L109.918 19.6582C109.995 19.9538 109.873 20.2652 109.615 20.4295C109.358 20.5937 109.024 20.5737 108.788 20.3796L105.101 17.3468C104.865 17.1529 104.532 17.1329 104.274 17.297L100.25 19.8668C99.9933 20.0316 99.6592 20.0119 99.4232 19.8181C99.1873 19.6242 99.103 19.3005 99.2144 19.0161L100.96 14.5715C101.071 14.2875 100.987 13.9637 100.752 13.7698L97.064 10.7369Z" fill="#FC902C"/>
</svg>
