<svg width="67" height="48" viewBox="0 0 67 48" fill="none" xmlns="http://www.w3.org/2000/svg">
<path d="M66.7829 18.1457C66.7829 6.88286 60.1086 0 51.7657 0C43.4229 0 38 5.84 38 13.7657C38 21.9 43.4229 26.4886 49.68 26.4886C52.1829 26.4886 54.06 26.0714 55.52 25.2371C55.52 31.9114 49.68 37.3343 41.5457 38.7943V47.5543C56.1457 45.6772 66.7829 33.3714 66.7829 18.1457Z" fill="#FE5E35"/>
<path d="M28.7829 18.1457C28.7829 6.88286 22.1086 0 13.7657 0C5.42286 0 0 5.84 0 13.7657C0 21.9 5.42286 26.4886 11.68 26.4886C14.1829 26.4886 16.06 26.0714 17.52 25.2371C17.52 31.9114 11.68 37.3343 3.54571 38.7943V47.5543C18.1457 45.6772 28.7829 33.3714 28.7829 18.1457Z" fill="#FE5E35"/>
</svg>
