<svg width="117" height="41" viewBox="0 0 117 41" fill="none" xmlns="http://www.w3.org/2000/svg">
<path d="M1.69961 29.7716C1.42264 30.0864 1.14567 30.2374 0.868692 30.2248C0.604307 30.1997 0.390282 30.0801 0.226615 29.866C0.0755384 29.652 0.0314743 29.4191 0.094423 29.1673C0.132192 29.0036 0.201436 28.8715 0.302154 28.7707C0.415461 28.6574 0.604307 28.5252 0.868692 28.3742C0.994589 28.3112 1.25268 28.1601 1.64296 27.9209C2.04583 27.6817 2.49277 27.4173 2.98377 27.1278L4.68338 26.0891L5.34434 24.7672C7.39647 20.6504 9.92701 16.672 12.936 12.8321C15.9575 8.99225 18.8846 6.02108 21.7173 3.91859C23.2029 2.82328 24.2982 2.3134 25.0032 2.38894C25.746 2.41412 26.1552 2.85476 26.2307 3.71086C26.3063 4.55437 26.0671 5.94554 25.5131 7.88436C25.4124 8.23687 25.2613 8.71528 25.0599 9.31959C24.871 9.92389 24.5815 10.8052 24.1912 11.9634C23.8135 13.1217 23.2847 14.708 22.6049 16.7224C22.3405 17.5281 22.1139 18.2205 21.925 18.7997C21.7362 19.3662 21.6418 19.6621 21.6418 19.6872C21.6418 19.725 21.6669 19.7502 21.7173 19.7628C21.7802 19.7628 21.8936 19.7502 22.0572 19.725C22.1957 19.7124 22.4286 19.6998 22.756 19.6872C23.0959 19.6746 23.4484 19.6684 23.8135 19.6684C24.7577 19.6684 25.4879 19.7376 26.0041 19.8761C26.5329 20.002 26.9546 20.216 27.2694 20.5182C27.4708 20.6944 27.6282 20.9084 27.7415 21.1602C27.8548 21.412 27.9492 21.752 28.0248 22.18C28.1003 22.5577 28.1192 22.8536 28.0814 23.0676C28.0436 23.269 27.9366 23.439 27.7604 23.5775C27.5338 23.7537 27.2946 23.8104 27.0428 23.7474C26.791 23.6845 26.6021 23.5334 26.4762 23.2942C26.4007 23.1431 26.3692 22.9857 26.3818 22.8221C26.407 22.6458 26.4762 22.4381 26.5895 22.1989C27.0176 21.2924 26.5077 20.7196 25.0599 20.4804C24.6696 20.4174 24.2038 20.386 23.6624 20.386C23.1336 20.3734 22.6112 20.3986 22.095 20.4615C21.8936 20.4741 21.7236 20.493 21.5851 20.5182C21.4466 20.5433 21.3711 20.5559 21.3585 20.5559C21.3333 20.6063 21.2326 20.9147 21.0563 21.4813C20.8927 22.0352 20.7038 22.6962 20.4898 23.4642C20.2758 24.2195 20.0806 24.912 19.9044 25.5415C19.0231 28.8022 18.5069 31.1817 18.3558 32.6798C18.3432 32.8561 18.337 32.9883 18.337 33.0764C18.337 33.1646 18.3432 33.2212 18.3558 33.2464C18.3684 33.2716 18.3999 33.2842 18.4503 33.2842C18.5636 33.2842 18.6958 33.3408 18.8468 33.4541C18.9979 33.5674 19.1112 33.6933 19.1868 33.8318C19.3252 34.1969 19.256 34.5054 18.979 34.7572C18.7021 35.0215 18.3495 35.0971 17.9215 34.9838C17.5564 34.8453 17.3298 34.5557 17.2416 34.1151C17.1913 33.6115 17.399 32.3525 17.8648 30.3382C18.3432 28.3112 19.0168 25.8562 19.8855 22.9732C20.0743 22.3437 20.2254 21.8149 20.3387 21.3869C20.4646 20.9588 20.5213 20.7322 20.5087 20.707C20.4961 20.6944 20.4331 20.7007 20.3198 20.7259C20.2191 20.7385 20.0932 20.7574 19.9421 20.7825C16.4926 21.5379 12.8289 22.9291 8.9513 24.956C8.47289 25.2078 7.9756 25.4848 7.45942 25.787C6.94324 26.0765 6.4963 26.3346 6.11861 26.5612C5.75351 26.7878 5.53948 26.9326 5.47654 26.9956C5.35064 27.1467 5.1555 27.5747 4.89111 28.2797C4.63932 28.9722 4.36864 29.7716 4.07908 30.6781C3.78951 31.5719 3.55031 32.3966 3.36146 33.152C3.03413 34.4613 2.78233 35.6636 2.60608 36.7589C2.44241 37.8542 2.39205 38.597 2.455 38.9873C2.53054 39.4405 2.41093 39.7742 2.09619 39.9882C1.79404 40.2022 1.47929 40.2148 1.15196 40.026C0.937935 39.8875 0.818333 39.6609 0.793153 39.3461C0.767974 39.044 0.818333 38.5278 0.94423 37.7976C1.54854 34.7257 2.39835 31.7734 3.49365 28.9407C3.58178 28.7267 3.65102 28.5441 3.70138 28.393C3.75174 28.242 3.77063 28.1601 3.75804 28.1475C3.73286 28.135 3.62584 28.1979 3.437 28.3364C3.26074 28.4623 3.04672 28.6197 2.79492 28.8085C2.55572 28.9973 2.3291 29.1862 2.11508 29.375C1.91364 29.5513 1.77515 29.6835 1.69961 29.7716ZM8.51696 20.877C8.35329 21.1539 8.14556 21.5253 7.89377 21.9912C7.64197 22.4444 7.39018 22.9102 7.13838 23.3886C6.88659 23.867 6.67256 24.2825 6.4963 24.635C6.32005 24.9749 6.23192 25.1638 6.23192 25.2015C6.23192 25.2141 6.41447 25.1323 6.77957 24.956C7.14468 24.7798 7.59161 24.5595 8.12038 24.2951C8.67433 24.0307 9.25346 23.76 9.85776 23.483C10.4621 23.1935 10.9594 22.9606 11.3496 22.7843C14.4593 21.4624 17.2983 20.5622 19.8666 20.0838C20.1058 20.0335 20.3072 19.9894 20.4709 19.9516C20.6472 19.9013 20.7479 19.8698 20.7731 19.8572C20.8108 19.7942 21.006 19.2466 21.3585 18.2142C21.711 17.1819 22.1202 15.9733 22.586 14.5884C23.0644 13.2035 23.4925 11.9445 23.8701 10.8115C25.2802 6.56873 25.8027 4.10744 25.4376 3.42759C25.1102 2.73515 23.8953 3.20097 21.7928 4.82505C19.4889 6.61279 16.9899 9.16851 14.2956 12.4922C12.0673 15.2619 10.141 18.0569 8.51696 20.877ZM28.0059 31.2824C27.6156 31.2824 27.3386 31.125 27.1749 30.8103L27.1561 30.7914C27.1183 30.6907 27.0994 30.6088 27.0994 30.5459C27.0994 30.42 27.1812 30.1178 27.3449 29.6394C28.7298 25.7618 29.7055 23.2312 30.272 22.0478C30.335 21.9219 30.3664 21.8401 30.3664 21.8023C30.3664 21.7771 30.3602 21.7645 30.3476 21.7645C30.2972 21.7645 30.1335 21.9408 29.8566 22.2933C29.2523 23.0739 28.5913 23.8544 27.8737 24.635C26.5014 26.1206 25.5949 26.8634 25.1543 26.8634C24.9277 26.8634 24.7451 26.7375 24.6066 26.4857C24.5311 26.3598 24.4933 26.215 24.4933 26.0513C24.4933 25.6359 24.8458 24.912 25.5509 23.8796C26.2433 22.8221 27.0365 21.8716 27.9303 21.028C28.5346 20.4363 28.9879 20.0523 29.29 19.8761C29.4663 19.788 29.6299 19.7439 29.781 19.7439C29.8943 19.7439 29.995 19.7628 30.0832 19.8005C30.1839 19.8383 30.2657 19.8698 30.3287 19.895C30.3916 19.9201 30.4294 19.9327 30.442 19.9327C30.4672 19.9327 30.5994 19.7628 30.8386 19.4229C31.8583 17.9624 32.6137 16.6783 33.1047 15.5704C33.6335 14.3744 34.0112 13.6379 34.2378 13.3609C34.3637 13.2098 34.5085 13.1343 34.6721 13.1343C34.6847 13.1343 34.7351 13.1406 34.8232 13.1532C34.9113 13.1532 34.9932 13.2413 35.0687 13.4175V13.4742C35.0687 13.9274 34.5022 15.1486 33.3691 17.1378C32.9662 17.8303 32.4438 18.8878 31.8017 20.3104C30.7315 22.7025 29.9069 24.7798 29.3278 26.5423C28.7487 28.3049 28.4591 29.3058 28.4591 29.545C28.4591 29.6205 28.5221 29.7401 28.6479 29.9038C28.7738 30.0549 28.8368 30.2374 28.8368 30.4515C28.8368 30.6655 28.7487 30.8606 28.5724 31.0369C28.4087 31.2006 28.2199 31.2824 28.0059 31.2824ZM25.9286 25.3148C25.9537 25.3148 26.0545 25.2267 26.2307 25.0505C26.7091 24.5972 27.2568 24.0118 27.8737 23.2942C28.7801 22.2618 29.2334 21.689 29.2334 21.5757H29.2145C29.1264 21.5757 28.9186 21.7268 28.5913 22.0289C27.71 22.8473 27.0113 23.6215 26.4951 24.3517C26.3944 24.5154 26.3063 24.6476 26.2307 24.7483C26.0167 25.0505 25.9097 25.2204 25.9097 25.2582V25.296C25.9097 25.3086 25.916 25.3148 25.9286 25.3148ZM37.1838 26.108C36.9446 26.108 36.762 26.0765 36.6361 26.0136C36.1074 25.7366 35.843 25.2015 35.843 24.4084C35.843 23.8293 35.9689 23.0802 36.2207 22.1611V22.1422C36.2207 22.1296 36.2144 22.1234 36.2018 22.1234C36.1766 22.1234 35.9311 22.3311 35.4653 22.7465C34.3952 23.7034 33.5768 24.1818 33.0103 24.1818C32.683 24.1818 32.4438 24.0118 32.2927 23.6719C32.2297 23.4956 32.1983 23.3068 32.1983 23.1054C32.1983 22.564 32.4563 21.9471 32.9725 21.2547C33.9293 20.1594 34.9239 19.6117 35.9563 19.6117C36.611 19.6117 37.102 19.8572 37.4293 20.3482C37.4796 20.4237 37.5048 20.537 37.5048 20.6881C37.5048 21.1162 37.4293 21.4246 37.2782 21.6135C37.1271 21.8023 36.9886 22.0982 36.8628 22.501C36.611 23.3194 36.4851 23.9803 36.4851 24.4839C36.4851 24.8238 36.5732 25.0945 36.7494 25.296C36.8753 25.447 37.0264 25.5226 37.2027 25.5226C37.7944 25.5226 38.8582 24.9183 40.3942 23.7097C40.9607 23.2564 41.3573 22.885 41.5839 22.5955C41.8105 22.2933 41.9238 21.9975 41.9238 21.7079C41.9238 21.4057 41.9994 21.198 42.1504 21.0847C42.3015 20.9714 42.4463 20.9147 42.5848 20.9147C42.824 20.9147 42.994 21.0343 43.0947 21.2735C43.145 21.4246 43.1702 21.5694 43.1702 21.7079C43.1702 22.1234 43.0443 22.4066 42.7925 22.5577C42.6792 22.6081 42.3771 22.8473 41.8861 23.2753C41.1055 23.9552 40.3438 24.5532 39.601 25.0693C38.8582 25.5729 38.2917 25.8814 37.9014 25.9947C37.6748 26.0702 37.4356 26.108 37.1838 26.108ZM33.0292 23.4642C33.3062 23.4642 33.816 23.1368 34.5588 22.4822C35.2009 21.9156 35.5786 21.5065 35.6919 21.2547C35.7297 21.1665 35.7486 21.0406 35.7486 20.877C35.7486 20.6504 35.6353 20.537 35.4086 20.537C35.1946 20.537 34.9113 20.6504 34.5588 20.877C33.8412 21.3428 33.3439 21.8967 33.0669 22.5388C32.9285 22.8536 32.8592 23.0928 32.8592 23.2564C32.8592 23.3949 32.9159 23.4642 33.0292 23.4642ZM52.1593 25.5037C51.7061 25.5037 51.3032 25.3715 50.9507 25.1071C50.6107 24.7924 50.4219 24.3895 50.3841 23.8985C50.3841 23.2816 50.4093 22.7654 50.4597 22.35L50.5163 21.6701C50.5163 21.5316 50.5037 21.4498 50.4786 21.4246C50.4534 21.3994 50.403 21.3869 50.3275 21.3869C49.9246 21.475 49.1944 22.0352 48.1369 23.0676C47.0919 24.0873 46.4058 24.5972 46.0784 24.5972L45.9651 24.5783C45.7511 24.4902 45.6441 23.9552 45.6441 22.9732C45.6441 22.3311 45.6189 21.9849 45.5686 21.9345C45.5686 21.8967 45.5497 21.8779 45.5119 21.8779C45.3231 21.8779 44.7439 22.35 43.7745 23.2942C43.6738 23.3949 43.5731 23.5082 43.4724 23.6341C43.0065 24.1881 42.6163 24.465 42.3015 24.465L42.1693 24.4462C41.842 24.3706 41.6783 24.1692 41.6783 23.8418C41.6783 23.6782 41.6972 23.4893 41.735 23.2753L41.9994 21.4624C42.0497 21.0343 42.1127 20.7448 42.1882 20.5937C42.3141 20.2915 42.5722 20.1405 42.9625 20.1405C43.3402 20.1405 43.592 20.3356 43.7179 20.7259C43.7556 20.814 43.7745 20.8896 43.7745 20.9525C43.7745 21.028 43.699 21.2295 43.5479 21.5568C43.2332 22.1863 43.0758 22.564 43.0758 22.6899V22.7088C43.1136 22.7088 43.3653 22.5073 43.8312 22.1045C44.6243 21.3869 45.2349 21.028 45.663 21.028C46.0658 21.028 46.3051 21.3365 46.3806 21.9534C46.4058 22.1045 46.4247 22.2807 46.4372 22.4822C46.4372 22.6836 46.431 22.8661 46.4184 23.0298V23.5964C46.4813 23.5964 46.7142 23.3823 47.1171 22.9543C48.7789 21.2295 49.9435 20.3671 50.6107 20.3671C51.1017 20.3671 51.3472 20.707 51.3472 21.3869C51.3472 21.7016 51.3158 22.0982 51.2528 22.5766C51.2025 22.9669 51.1773 23.3257 51.1773 23.653V23.8607C51.1773 24.5154 51.4668 24.8427 52.046 24.8427C52.3481 24.8427 52.7951 24.7357 53.3868 24.5217C53.9785 24.3077 54.608 23.9615 55.2752 23.483C55.9425 23.0046 56.3391 22.5388 56.465 22.0856C56.6412 21.4561 56.9686 21.1414 57.447 21.1414C57.6484 21.1414 57.8184 21.2106 57.9569 21.3491C58.0324 21.4372 58.0702 21.5379 58.0702 21.6512C58.0702 21.9408 57.9254 22.1674 57.6358 22.3311C57.5351 22.3814 57.4407 22.4507 57.3525 22.5388C56.9623 22.9543 56.3705 23.4516 55.5774 24.0307C54.7968 24.6098 53.9785 25.0442 53.1224 25.3337C52.7825 25.447 52.4614 25.5037 52.1593 25.5037ZM60.8651 33.7185C60.9784 33.5045 61.1672 33.1079 61.4316 32.5288C61.6834 31.9622 61.9604 31.339 62.2625 30.6592C66.2535 21.8086 70.1437 14.3807 73.9332 8.37536C74.4494 7.56961 74.8271 7.02826 75.0663 6.75128C75.3055 6.46172 75.5132 6.31693 75.6895 6.31693C76.0924 6.31693 76.2372 6.75758 76.1239 7.63886C76.0987 7.80252 76.0483 8.13615 75.9728 8.63974C75.8972 9.13074 75.765 9.93019 75.5762 11.0381C75.3874 12.1334 75.1293 13.663 74.8019 15.627C74.4746 17.6036 73.9647 20.2412 73.2723 23.5397C72.4791 27.2285 72.0825 29.7213 72.0825 31.018C72.0825 31.1943 72.0888 31.3516 72.1014 31.4901C72.114 31.6286 72.1266 31.7104 72.1392 31.7356C72.177 31.7608 72.2462 31.7104 72.3469 31.5845C72.4602 31.4586 72.6302 31.2131 72.8568 30.848C73.0834 30.4829 73.3919 29.9479 73.7822 29.2428C74.185 28.5378 74.6949 27.6314 75.3118 26.5235C78.56 20.6441 81.1094 16.3321 82.9601 13.5875C86.1201 8.99225 89.1416 5.23422 92.0247 2.3134C92.6919 1.63355 93.1892 1.2055 93.5166 1.02925C93.8439 0.852989 94.1083 0.871873 94.3097 1.0859C94.6119 1.29992 94.6434 1.97977 94.4041 3.12544C94.2783 3.71715 94.1083 4.34035 93.8943 4.99501C93.6928 5.64968 93.3529 6.59391 92.8745 7.8277C90.2181 14.8024 88.3296 20.6126 87.2091 25.2582C86.3278 28.9596 85.7235 32.5288 85.3962 35.9658C85.3836 35.9909 85.3773 36.0098 85.3773 36.0224C85.3395 36.4127 85.3144 36.7149 85.3018 36.9289C85.2892 37.1555 85.2829 37.3192 85.2829 37.4199C85.2955 37.5332 85.3144 37.6087 85.3395 37.6465C85.3773 37.6843 85.4214 37.7157 85.4717 37.7409C85.4843 37.7409 85.4906 37.7472 85.4906 37.7598C85.7172 37.8731 85.8557 38.0557 85.9061 38.3075C85.9564 38.5593 85.9187 38.8362 85.7928 39.1384C85.6165 39.4783 85.3962 39.6986 85.1318 39.7993C84.88 39.9127 84.6597 39.8686 84.4708 39.6672C84.2568 39.4405 84.2002 38.9307 84.3009 38.1375C84.3387 37.9612 84.3764 37.6654 84.4142 37.2499C84.4646 36.8345 84.5212 36.4001 84.5842 35.9469C85.2011 30.8229 86.2334 25.724 87.6812 20.6504C88.1596 19.0137 88.8017 16.993 89.6075 14.5884C90.4258 12.1712 91.2504 9.82947 92.0813 7.56332C92.2576 7.08491 92.4339 6.6002 92.6101 6.1092C92.7864 5.60561 92.9249 5.20904 93.0256 4.91947C93.1263 4.56696 93.227 4.17668 93.3277 3.74863C93.441 3.32058 93.5292 2.94289 93.5921 2.61555C93.6551 2.28822 93.6739 2.10567 93.6488 2.0679C93.6488 2.05531 93.6425 2.04901 93.6299 2.04901C93.6173 2.04901 93.6047 2.05531 93.5921 2.0679C93.5795 2.08049 93.5543 2.09937 93.5166 2.12455C93.4914 2.14973 93.4473 2.1875 93.3844 2.23786C93.334 2.27563 93.2648 2.33228 93.1767 2.40782C93.1011 2.48336 93.0067 2.57778 92.8934 2.69109C92.7801 2.79181 92.6479 2.91771 92.4968 3.06878C91.7918 3.74863 90.8601 4.75581 89.7019 6.09032C88.5562 7.41224 87.4609 8.74675 86.416 10.0939C83.3441 14.0722 79.7434 19.8887 75.614 27.5432C74.7956 29.054 74.1473 30.1997 73.6689 30.9802C73.1904 31.7608 72.8065 32.2644 72.5169 32.491C72.2399 32.7176 71.9881 32.7554 71.7615 32.6043C71.6104 32.5288 71.5034 32.3714 71.4405 32.1322C71.3901 31.9056 71.3712 31.5027 71.3838 30.9236C71.3712 30.2186 71.4594 29.268 71.6482 28.072C71.8496 26.8634 72.2147 24.9875 72.7435 22.4444C73.1086 20.6441 73.3919 19.1962 73.5933 18.1009C73.8073 17.0056 74.0402 15.7341 74.292 14.2862C74.4179 13.5309 74.5501 12.7692 74.6886 12.0012C74.8145 11.2458 74.9152 10.6604 74.9908 10.2449C75.3181 8.39424 75.4503 7.4689 75.3874 7.4689C75.3622 7.4689 75.1859 7.72699 74.8586 8.24316C74.5312 8.74675 74.1599 9.33218 73.7444 9.99943C73.3415 10.6541 72.989 11.2332 72.6869 11.7368C70.811 14.922 68.74 18.8563 66.4738 23.5397C65.5925 25.3526 64.8938 26.8256 64.3776 27.9587C63.8614 29.0792 63.3075 30.3507 62.7158 31.7734C62.1996 32.9946 61.7967 33.9199 61.5072 34.5494C61.205 35.1789 60.9658 35.5944 60.7896 35.7958C60.6007 36.0098 60.4182 36.1168 60.2419 36.1168C60.0405 36.1168 59.8768 36.0413 59.7509 35.8902C59.625 35.7769 59.5306 35.6007 59.4676 35.3615C59.4047 35.1348 59.348 34.7634 59.2977 34.2473C59.2347 32.9002 59.2599 31.9056 59.3732 31.2635C59.4865 30.6214 59.625 30.0927 59.7887 29.6772C59.8138 29.6017 59.839 29.5261 59.8642 29.4506C60.1789 28.7833 60.5755 28.4623 61.0539 28.4875C61.5198 28.5001 61.7967 28.8337 61.8849 29.4883C61.8974 29.6898 61.8912 29.866 61.866 30.0171C61.8282 30.1682 61.759 30.3822 61.6582 30.6592C61.3435 31.4901 61.0036 32.2077 60.6385 32.812C60.4119 33.1771 60.3615 33.6304 60.4874 34.1717C60.5 34.2473 60.5189 34.285 60.5441 34.285C60.5566 34.2976 60.5881 34.2599 60.6385 34.1717C60.6888 34.0836 60.7644 33.9325 60.8651 33.7185ZM94.3664 26.108C94.1272 26.108 93.9446 26.0765 93.8187 26.0136C93.29 25.7366 93.0256 25.2015 93.0256 24.4084C93.0256 23.8293 93.1515 23.0802 93.4033 22.1611V22.1422C93.4033 22.1296 93.397 22.1234 93.3844 22.1234C93.3592 22.1234 93.1137 22.3311 92.6479 22.7465C91.5778 23.7034 90.7594 24.1818 90.1929 24.1818C89.8655 24.1818 89.6263 24.0118 89.4753 23.6719C89.4123 23.4956 89.3808 23.3068 89.3808 23.1054C89.3808 22.564 89.6389 21.9471 90.1551 21.2547C91.1119 20.1594 92.1065 19.6117 93.1389 19.6117C93.7935 19.6117 94.2845 19.8572 94.6119 20.3482C94.6622 20.4237 94.6874 20.537 94.6874 20.6881C94.6874 21.1162 94.6119 21.4246 94.4608 21.6135C94.3097 21.8023 94.1712 22.0982 94.0453 22.501C93.7935 23.3194 93.6677 23.9803 93.6677 24.4839C93.6677 24.8238 93.7558 25.0945 93.932 25.296C94.0579 25.447 94.209 25.5226 94.3853 25.5226C94.977 25.5226 96.0408 24.9183 97.5768 23.7097C98.1433 23.2564 98.5399 22.885 98.7665 22.5955C98.9931 22.2933 99.1064 21.9975 99.1064 21.7079C99.1064 21.4057 99.182 21.198 99.333 21.0847C99.4841 20.9714 99.6289 20.9147 99.7674 20.9147C100.007 20.9147 100.177 21.0343 100.277 21.2735C100.328 21.4246 100.353 21.5694 100.353 21.7079C100.353 22.1234 100.227 22.4066 99.9751 22.5577C99.8618 22.6081 99.5596 22.8473 99.0686 23.2753C98.2881 23.9552 97.5264 24.5532 96.7836 25.0693C96.0408 25.5729 95.4743 25.8814 95.084 25.9947C94.8574 26.0702 94.6182 26.108 94.3664 26.108ZM90.2118 23.4642C90.4887 23.4642 90.9986 23.1368 91.7414 22.4822C92.3835 21.9156 92.7612 21.5065 92.8745 21.2547C92.9123 21.1665 92.9312 21.0406 92.9312 20.877C92.9312 20.6504 92.8178 20.537 92.5912 20.537C92.3772 20.537 92.0939 20.6504 91.7414 20.877C91.0238 21.3428 90.5265 21.8967 90.2495 22.5388C90.111 22.8536 90.0418 23.0928 90.0418 23.2564C90.0418 23.3949 90.0985 23.4642 90.2118 23.4642ZM102.94 27.7132C102.424 27.7132 102.034 27.5369 101.769 27.1844C101.555 26.8949 101.448 26.3283 101.448 25.4848L101.467 24.635C101.467 23.8418 101.379 23.2816 101.203 22.9543C101.039 22.6269 100.617 22.3751 99.9373 22.1989C99.2071 21.9849 98.842 21.5883 98.842 21.0092C98.842 20.8077 98.8798 20.5874 98.9553 20.3482C99.1064 19.8824 99.3456 19.5236 99.6729 19.2718C99.9122 19.0955 100.151 19.0074 100.391 19.0074C100.491 19.0074 100.586 19.02 100.674 19.0452C101.177 19.2214 101.429 19.618 101.429 20.2349C101.429 20.5119 101.391 20.7637 101.316 20.9903C101.228 21.368 101.184 21.6135 101.184 21.7268C101.184 21.8904 101.272 22.0163 101.448 22.1045C101.763 22.3814 101.958 22.6899 102.034 23.0298C102.071 23.2312 102.103 23.823 102.128 24.805C102.153 25.9255 102.21 26.5612 102.298 26.7123C102.399 26.9137 102.6 27.0145 102.902 27.0145C103.355 27.0145 103.941 26.7438 104.658 26.2024C105.729 25.3841 106.648 24.4965 107.416 23.5397C108.184 22.5703 108.618 21.7645 108.719 21.1225C108.744 20.9336 108.807 20.7322 108.908 20.5182C109.071 20.1405 109.292 19.9516 109.568 19.9516C109.657 19.9516 109.751 19.9768 109.852 20.0272C110.104 20.1908 110.229 20.43 110.229 20.7448C110.229 20.7825 110.223 20.9021 110.211 21.1036C110.198 21.2924 110.041 21.5127 109.738 21.7645C109.6 21.8527 109.392 22.0982 109.115 22.501C108.133 23.974 106.969 25.2456 105.622 26.3157C104.463 27.2474 103.569 27.7132 102.94 27.7132ZM99.7107 21.1602C99.8366 21.1602 99.994 20.9966 100.183 20.6692C100.296 20.4174 100.353 20.2223 100.353 20.0838C100.353 19.9831 100.328 19.9327 100.277 19.9327C100.189 19.9327 100.088 20.0083 99.9751 20.1594C99.8618 20.3104 99.7737 20.4678 99.7107 20.6315C99.6604 20.7825 99.6352 20.9084 99.6352 21.0092C99.6352 21.1099 99.6604 21.1602 99.7107 21.1602ZM109.077 21.0658C109.166 20.8644 109.317 20.537 109.531 20.0838C109.745 19.6306 109.971 19.1585 110.211 18.6675C110.475 18.1387 110.683 17.7044 110.834 17.3644C110.997 17.0119 111.123 16.7412 111.211 16.5524C111.3 16.3635 111.35 16.2251 111.363 16.1369C111.388 16.0488 111.388 15.9921 111.363 15.967C111.35 15.9292 111.325 15.904 111.287 15.8914C111.199 15.8537 111.123 15.7592 111.06 15.6082C110.997 15.4445 110.966 15.2745 110.966 15.0983C110.966 14.708 111.281 14.1918 111.91 13.5497C112.061 13.4113 112.175 13.3231 112.25 13.2854C112.338 13.235 112.445 13.2098 112.571 13.2098C112.647 13.2098 112.722 13.2161 112.798 13.2287C112.886 13.2287 112.949 13.2413 112.987 13.2665C113.062 13.3042 113.131 13.3924 113.194 13.5309C113.27 13.6568 113.308 13.7826 113.308 13.9085C113.308 14.2233 112.854 15.2431 111.948 16.9679C110.953 18.8941 110.267 20.2538 109.89 21.0469C109.524 21.8275 109.386 22.2178 109.474 22.2178C109.487 22.2178 109.568 22.1485 109.72 22.01C109.871 21.859 110.047 21.6764 110.248 21.4624C110.462 21.2484 110.62 21.0847 110.72 20.9714C110.834 20.8455 110.897 20.7511 110.909 20.6881C110.934 20.6252 110.941 20.5622 110.928 20.4993C110.878 20.2223 110.947 19.9768 111.136 19.7628C111.325 19.5362 111.558 19.3977 111.835 19.3473C112.112 19.2844 112.376 19.3599 112.628 19.5739C112.93 19.8761 112.961 20.2412 112.722 20.6692C112.621 20.8203 112.477 20.9588 112.288 21.0847C112.099 21.198 111.929 21.2547 111.778 21.2547C111.639 21.2547 111.224 21.6009 110.532 22.2933C110.242 22.5955 109.997 22.8536 109.795 23.0676C109.606 23.269 109.506 23.376 109.493 23.3886C109.506 23.4138 109.568 23.483 109.682 23.5964C109.808 23.7097 109.959 23.8418 110.135 23.9929C110.815 24.6224 111.356 24.9372 111.759 24.9372C112.2 24.912 112.697 24.5846 113.251 23.9552C113.427 23.7411 113.616 23.4956 113.818 23.2187C114.019 22.9417 114.195 22.6836 114.346 22.4444C114.497 22.2052 114.573 22.0604 114.573 22.01C114.573 21.9849 114.56 21.9471 114.535 21.8967C114.51 21.8338 114.478 21.7771 114.441 21.7268C114.353 21.5757 114.353 21.4057 114.441 21.2169C114.529 21.0155 114.674 20.8644 114.875 20.7637C115.076 20.6629 115.309 20.6692 115.574 20.7825C115.863 20.9462 115.951 21.1791 115.838 21.4813C115.725 21.7834 115.536 22.0289 115.272 22.2178C114.995 22.5577 114.743 22.9039 114.516 23.2564C114.139 23.8104 113.717 24.3328 113.251 24.8238C112.231 25.8562 111.086 25.7933 109.814 24.635C109.663 24.5217 109.524 24.421 109.399 24.3328C109.273 24.2447 109.191 24.2007 109.153 24.2007C109.052 24.2007 108.914 24.2636 108.738 24.3895C108.574 24.5028 108.429 24.6413 108.303 24.805C108.152 25.019 107.944 25.4659 107.68 26.1458C107.403 26.8256 107.126 27.5873 106.849 28.4308C106.572 29.2743 106.339 30.0486 106.15 30.7536C105.798 32.1511 105.716 33.0324 105.905 33.3975C106.018 33.6493 106.05 33.8885 105.999 34.1151C105.936 34.3417 105.792 34.5179 105.565 34.6438C105.439 34.7068 105.326 34.7383 105.225 34.7383C105.124 34.7383 105.005 34.7005 104.866 34.625C104.728 34.562 104.614 34.455 104.526 34.3039C104.438 34.1528 104.394 34.0018 104.394 33.8507C104.394 33.6115 104.614 32.8183 105.055 31.4712C105.483 30.1241 105.974 28.7078 106.528 27.2222C106.956 26.1269 107.164 25.4722 107.151 25.2582C107.151 25.1071 107.17 24.9812 107.208 24.8805C107.246 24.7798 107.309 24.6728 107.397 24.5595C107.523 24.3958 107.661 24.1629 107.812 23.8607C107.963 23.5586 108.165 23.1054 108.417 22.501C108.517 22.287 108.624 22.0478 108.738 21.7834C108.863 21.5065 108.977 21.2672 109.077 21.0658Z" fill="#040C0C"/>
</svg>
