<svg width="21" height="23" viewBox="0 0 21 23" fill="none" xmlns="http://www.w3.org/2000/svg">
<path d="M7.3374 7.17891L9.35773 2.0347C9.48676 1.70565 9.81305 1.49723 10.166 1.51833C10.5189 1.53962 10.8178 1.7856 10.9065 2.12784L12.296 7.47717C12.3848 7.81898 12.6837 8.06496 13.0362 8.08614L18.5531 8.41757C18.9061 8.43843 19.2056 8.68429 19.2945 9.02649C19.3834 9.36868 19.2418 9.72938 18.9437 9.91944L14.2854 12.8938C13.9875 13.084 13.8458 13.4443 13.9347 13.7865L15.1721 18.5487L7.04858 7.54065C7.17824 7.45111 7.27872 7.32527 7.3374 7.17891Z" fill="#FFD839"/>
<path d="M0.443818 8.80826C0.171442 8.58368 0.0743491 8.20942 0.203269 7.8808C0.332189 7.55218 0.657845 7.34368 1.01028 7.36447L6.52785 7.69555C6.7136 7.70532 6.89695 7.65073 7.04706 7.54096L15.1706 18.549L15.3238 19.1358C15.4129 19.4779 15.2714 19.8384 14.9735 20.0286C14.6753 20.2186 14.2889 20.1955 14.0161 19.9708L9.74791 16.46C9.47495 16.2355 9.08849 16.2124 8.79075 16.4023L4.13241 19.3771C3.83484 19.5679 3.44806 19.5452 3.17491 19.3208C2.90175 19.0964 2.80415 18.7216 2.93314 18.3923L4.95371 13.2473C5.08278 12.9184 4.98537 12.5436 4.71261 12.3191L0.443818 8.80826Z" fill="#FFCD00"/>
</svg>
