<svg width="115" height="28" viewBox="0 0 115 28" fill="none" xmlns="http://www.w3.org/2000/svg">
<path d="M29.9769 9.92258L41.5153 9.92258L41.5153 12.0706L36.9722 12.0706L36.9722 24.1792L34.482 24.1792L34.482 12.0706L29.9579 12.0706L29.9769 9.92258ZM41.0211 13.8574L43.15 13.8574L43.15 15.8533L43.1881 15.8533C43.2641 15.5682 43.3972 15.3021 43.5872 15.0359C43.7773 14.7698 44.0054 14.5227 44.2906 14.3136C44.5567 14.0855 44.8608 13.9144 45.203 13.7814C45.5261 13.6483 45.8683 13.5723 46.2105 13.5723C46.4766 13.5723 46.6667 13.5913 46.7617 13.5913C46.8568 13.6103 46.9708 13.6293 47.0659 13.6293L47.0659 15.8153C46.9138 15.7773 46.7427 15.7583 46.5716 15.7393C46.4006 15.7203 46.2485 15.7013 46.0774 15.7013C45.6972 15.7013 45.3361 15.7773 44.9939 15.9294C44.6517 16.0814 44.3666 16.3095 44.1005 16.5947C43.8534 16.8988 43.6443 17.26 43.4922 17.6972C43.3401 18.1344 43.2641 18.6476 43.2641 19.2179L43.2641 24.1222L40.983 24.1222L41.0211 13.8574ZM57.5207 24.1792L55.2777 24.1792L55.2777 22.7345L55.2397 22.7345C54.9545 23.2668 54.5363 23.666 53.9851 23.9891C53.4338 24.3123 52.8636 24.4643 52.2933 24.4643C50.9437 24.4643 49.9552 24.1412 49.3469 23.4569C48.7386 22.7915 48.4345 21.7651 48.4345 20.4154L48.4345 13.8574L50.7156 13.8574L50.7156 20.1873C50.7156 21.0998 50.8866 21.7461 51.2478 22.1072C51.59 22.4874 52.0842 22.6775 52.7115 22.6775C53.1867 22.6775 53.5859 22.6015 53.909 22.4494C54.2322 22.2973 54.4983 22.1072 54.6884 21.8601C54.8975 21.613 55.0306 21.3089 55.1256 20.9667C55.2206 20.6245 55.2587 20.2444 55.2587 19.8452L55.2587 13.8574L57.5397 13.8574L57.5397 24.1792L57.5207 24.1792ZM61.3985 20.8717C61.4746 21.537 61.7217 21.9932 62.1589 22.2783C62.5961 22.5444 63.1283 22.6775 63.7366 22.6775C63.9457 22.6775 64.1928 22.6585 64.4589 22.6205C64.7251 22.5825 64.9912 22.5254 65.2193 22.4304C65.4664 22.3353 65.6565 22.2023 65.8086 22.0122C65.9606 21.8221 66.0367 21.594 66.0177 21.3089C65.9987 21.0237 65.9036 20.7766 65.6945 20.5865C65.4854 20.3964 65.2383 20.2634 64.9342 20.1303C64.63 20.0163 64.2689 19.9212 63.8697 19.8452C63.4705 19.7691 63.0713 19.6741 62.6531 19.5791C62.2349 19.484 61.8167 19.37 61.4175 19.2369C61.0183 19.1038 60.6762 18.9328 60.353 18.6856C60.0489 18.4575 59.7828 18.1724 59.6117 17.8112C59.4216 17.4501 59.3266 17.0319 59.3266 16.4996C59.3266 15.9294 59.4596 15.4731 59.7447 15.093C60.0109 14.7128 60.372 14.4087 60.7902 14.1806C61.2084 13.9524 61.6837 13.7814 62.1969 13.6863C62.7101 13.5913 63.2044 13.5533 63.6606 13.5533C64.1928 13.5533 64.7061 13.6103 65.1813 13.7243C65.6565 13.8384 66.1127 14.0095 66.4929 14.2756C66.8921 14.5227 67.2152 14.8649 67.4623 15.264C67.7285 15.6632 67.8805 16.1575 67.9566 16.7277L65.5805 16.7277C65.4664 16.1765 65.2193 15.8153 64.8391 15.6252C64.4399 15.4351 64.0027 15.3401 63.4895 15.3401C63.3374 15.3401 63.1283 15.3591 62.9192 15.3781C62.6911 15.4161 62.501 15.4541 62.2919 15.5302C62.1018 15.6062 61.9308 15.7203 61.7977 15.8533C61.6646 15.9864 61.5886 16.1765 61.5886 16.4046C61.5886 16.6897 61.6837 16.8988 61.8737 17.0699C62.0638 17.241 62.3109 17.374 62.6341 17.5071C62.9382 17.6211 63.2994 17.7162 63.6986 17.7922C64.0978 17.8683 64.516 17.9633 64.9342 18.0583C65.3524 18.1534 65.7515 18.2674 66.1507 18.4005C66.5499 18.5336 66.9111 18.7047 67.2152 18.9518C67.5194 19.1799 67.7855 19.465 67.9756 19.8072C68.1657 20.1493 68.2607 20.5865 68.2607 21.0808C68.2607 21.689 68.1276 22.2023 67.8425 22.6395C67.5574 23.0577 67.1962 23.4188 66.759 23.685C66.3218 23.9511 65.8086 24.1412 65.2763 24.2742C64.7251 24.3883 64.1928 24.4643 63.6606 24.4643C63.0143 24.4643 62.406 24.3883 61.8547 24.2362C61.3035 24.0841 60.8092 23.856 60.4101 23.5709C60.0109 23.2668 59.6877 22.9056 59.4596 22.4494C59.2315 22.0122 59.0984 21.4799 59.0794 20.8527L61.3795 20.8526L61.3795 20.8717L61.3985 20.8717ZM68.907 13.8574L70.6368 13.8574L70.6368 10.74L72.9179 10.74L72.9179 13.8384L74.9708 13.8384L74.9708 15.5302L72.9179 15.5302L72.9179 21.0427C72.9179 21.2899 72.9369 21.4799 72.9559 21.67C72.9749 21.8411 73.0319 21.9932 73.0889 22.1072C73.165 22.2213 73.279 22.3163 73.4121 22.3734C73.5642 22.4304 73.7543 22.4684 74.0204 22.4684C74.1725 22.4684 74.3435 22.4684 74.4956 22.4494C74.6477 22.4304 74.8187 22.4114 74.9708 22.3734L74.9708 24.1412C74.7237 24.1792 74.4766 24.1982 74.2295 24.2172C73.9824 24.2552 73.7543 24.2552 73.4881 24.2552C72.8799 24.2552 72.4046 24.1982 72.0435 24.0841C71.6823 23.9701 71.3972 23.799 71.1881 23.5899C70.979 23.3618 70.8459 23.0957 70.7699 22.7725C70.6938 22.4494 70.6558 22.0502 70.6368 21.632L70.6368 15.5492L68.907 15.5492L68.907 13.8194L68.907 13.8574ZM76.5676 13.8574L78.7156 13.8574L78.7156 15.264L78.7536 15.264C79.0767 14.6558 79.5139 14.2376 80.0842 13.9715C80.6545 13.7053 81.2627 13.5723 81.9471 13.5723C82.7644 13.5723 83.4678 13.7053 84.0761 14.0095C84.6843 14.2946 85.1786 14.6748 85.5778 15.188C85.9769 15.6822 86.2811 16.2715 86.4712 16.9368C86.6613 17.6021 86.7753 18.3245 86.7753 19.0658C86.7753 19.7691 86.6803 20.4344 86.5092 21.0808C86.3191 21.7271 86.053 22.3163 85.6918 22.8106C85.3306 23.3048 84.8744 23.704 84.3042 24.0081C83.7339 24.3123 83.0876 24.4643 82.3272 24.4643C82.0041 24.4643 81.6619 24.4263 81.3388 24.3693C81.0156 24.3123 80.6925 24.2172 80.3883 24.0841C80.0842 23.9511 79.7991 23.78 79.5519 23.5709C79.2858 23.3618 79.0767 23.1147 78.9057 22.8486L78.8676 22.8486L78.8676 28L76.5866 28L76.5866 13.8574L76.5676 13.8574ZM84.5323 19.0278C84.5323 18.5716 84.4752 18.1154 84.3422 17.6782C84.2281 17.241 84.038 16.8608 83.7909 16.5186C83.5438 16.1765 83.2397 15.9104 82.8975 15.7013C82.5363 15.4922 82.1181 15.3971 81.6619 15.3971C80.7115 15.3971 79.9892 15.7203 79.4949 16.3856C79.0197 17.0509 78.7726 17.9443 78.7726 19.0468C78.7726 19.5791 78.8296 20.0543 78.9627 20.4915C79.0957 20.9287 79.2668 21.3089 79.5329 21.632C79.7801 21.9552 80.0842 22.2023 80.4454 22.3924C80.8065 22.5824 81.2057 22.6775 81.6809 22.6775C82.2132 22.6775 82.6314 22.5634 82.9926 22.3543C83.3537 22.1452 83.6388 21.8601 83.886 21.537C84.1141 21.1948 84.2851 20.8146 84.3802 20.3774C84.4752 19.9212 84.5323 19.484 84.5323 19.0278ZM88.5431 9.92257L90.8242 9.92257L90.8242 12.0706L88.5431 12.0706L88.5431 9.92257ZM88.5431 13.8574L90.8242 13.8574L90.8242 24.1792L88.5431 24.1792L88.5431 13.8574ZM92.8581 9.92257L95.1392 9.92257L95.1392 24.1792L92.8581 24.1792L92.8581 9.92257ZM102.096 24.4643C101.279 24.4643 100.538 24.3313 99.8914 24.0461C99.2451 23.761 98.7129 23.3998 98.2566 22.9246C97.8194 22.4494 97.4773 21.8601 97.2492 21.1948C97.0211 20.5295 96.888 19.7881 96.888 19.0088C96.888 18.2294 97.0021 17.5071 97.2492 16.8418C97.4773 16.1765 97.8194 15.6062 98.2566 15.112C98.6938 14.6368 99.2451 14.2566 99.8914 13.9905C100.538 13.7243 101.279 13.5723 102.096 13.5723C102.914 13.5723 103.655 13.7053 104.301 13.9905C104.948 14.2566 105.48 14.6368 105.936 15.112C106.373 15.5872 106.716 16.1765 106.944 16.8418C107.172 17.5071 107.305 18.2294 107.305 19.0088C107.305 19.8072 107.191 20.5295 106.944 21.1948C106.697 21.8601 106.373 22.4304 105.936 22.9246C105.499 23.3998 104.948 23.78 104.301 24.0461C103.655 24.3123 102.933 24.4643 102.096 24.4643ZM102.096 22.6585C102.591 22.6585 103.047 22.5444 103.408 22.3353C103.788 22.1262 104.073 21.8411 104.32 21.4989C104.568 21.1568 104.739 20.7576 104.853 20.3394C104.967 19.9022 105.024 19.465 105.024 19.0088C105.024 18.5716 104.967 18.1344 104.853 17.6972C104.739 17.26 104.568 16.8798 104.32 16.5376C104.073 16.1955 103.769 15.9294 103.408 15.7203C103.028 15.5112 102.591 15.3971 102.096 15.3971C101.602 15.3971 101.146 15.5112 100.785 15.7203C100.405 15.9294 100.12 16.2145 99.8724 16.5376C99.6253 16.8798 99.4542 17.26 99.3401 17.6972C99.2261 18.1344 99.1691 18.5716 99.1691 19.0088C99.1691 19.465 99.2261 19.9022 99.3401 20.3394C99.4542 20.7766 99.6253 21.1568 99.8724 21.4989C100.12 21.8411 100.424 22.1262 100.785 22.3353C101.165 22.5634 101.602 22.6585 102.096 22.6585ZM107.989 13.8574L109.719 13.8574L109.719 10.7399L112 10.7399L112 13.8384L114.053 13.8384L114.053 15.5302L112 15.5302L112 21.0427C112 21.2898 112.019 21.4799 112.038 21.67C112.057 21.8411 112.114 21.9932 112.171 22.1072C112.247 22.2213 112.361 22.3163 112.494 22.3734C112.646 22.4304 112.836 22.4684 113.103 22.4684C113.255 22.4684 113.426 22.4684 113.578 22.4494C113.73 22.4304 113.901 22.4114 114.053 22.3734L114.053 24.1412C113.806 24.1792 113.559 24.1982 113.312 24.2172C113.065 24.2552 112.836 24.2552 112.57 24.2552C111.962 24.2552 111.487 24.1982 111.126 24.0841C110.764 23.9701 110.479 23.799 110.27 23.5899C110.061 23.3618 109.928 23.0957 109.852 22.7725C109.776 22.4494 109.738 22.0502 109.719 21.632L109.719 15.5492L107.989 15.5492L107.989 13.8194L107.989 13.8574Z" fill="black"/>
<path d="M27.3157 9.92264L16.8798 9.92264L13.6673 2.93227e-05L10.4358 9.92264L8.658e-07 9.90363L8.43992 16.0435L5.20842 25.9661L13.6483 19.8262L22.0883 25.9661L18.8758 16.0435L27.3157 9.92264Z" fill="#00B67A"/>
<path d="M19.5981 18.2865L18.8758 16.0435L13.6674 19.8262L19.5981 18.2865Z" fill="#005128"/>
</svg>
